<svg width="133" height="147" fill="none" xmlns="http://www.w3.org/2000/svg"><g clip-path="url('#clip0_6_695')"><path d="M105.056 74.327h-2.494v-1.654h2.494c.459 0 .831-.37.831-.827a.829.829 0 0 0-.831-.826h-2.494l1.663-1.654h.831c1.356.005 2.493 1.111 2.493 2.48 0 .636-.24 1.215-.635 1.654.395.44.635 1.019.635 1.654 0 1.37-1.137 2.475-2.493 2.48h-2.494v-1.653h2.494c.459 0 .831-.37.831-.827a.829.829 0 0 0-.831-.827ZM40.412 73.5c0-2.282 1.861-4.134 4.156-4.134s4.156 1.852 4.156 4.134c0 2.283-1.861 4.134-4.156 4.134s-4.156-1.851-4.156-4.134Zm4.156 5.788c3.213 0 5.818-2.592 5.818-5.788s-2.605-5.788-5.818-5.788c-3.213 0-5.818 2.592-5.818 5.788s2.605 5.788 5.818 5.788Zm-1.662-8.269h1.662a2.487 2.487 0 0 1 2.494 2.481c0 1.37-1.138 2.476-2.494 2.48h-1.662v-1.653h1.662a.83.83 0 0 0 .831-.827.83.83 0 0 0-.83-.827h-1.663V71.02Zm14.13-1.653h1.662v8.268h-1.662l-3.325-5.19v5.19h-1.663v-8.268h1.663l3.325 5.191v-5.19Zm-24.936 0h4.987v1.654h-3.324v1.653h3.324v1.654h-3.324v1.654h3.324v1.653H32.1v-8.268Zm28.26 0h1.662v8.268H60.36v-8.268Zm6.65 8.268a3.316 3.316 0 0 0 3.324-3.307v-1.653a3.316 3.316 0 0 0-3.324-3.308h-3.325v8.268h3.325Zm0-6.614c.918 0 1.662.74 1.662 1.654v1.653c0 .913-.744 1.654-1.662 1.654h-1.663V71.02h1.663Zm28.903 2.48c0 2.283-1.86 4.134-4.156 4.134-2.294 0-4.156-1.851-4.156-4.134 0-2.282 1.862-4.134 4.156-4.134 2.295 0 4.156 1.852 4.156 4.134Zm-4.156-5.788c-3.213 0-5.818 2.592-5.818 5.788s2.606 5.788 5.818 5.788c3.213 0 5.819-2.592 5.819-5.788s-2.606-5.788-5.819-5.788Zm-66.306 1.654h1.662v6.615h3.325v1.653H25.45v-8.268Zm75.449 0v8.268h-1.663V71.02l1.663-1.654Zm-19.117 4.96a.83.83 0 0 0-.831.828v.826h3.325v1.654H79.29v-2.48a2.504 2.504 0 0 1 2.493-2.48.83.83 0 0 0 .831-.828.83.83 0 0 0-.83-.826h-2.495l1.663-1.654h.831c1.356.005 2.494 1.11 2.494 2.48 0 1.37-1.117 2.48-2.494 2.48Z" fill="purple"/><path fill-rule="evenodd" clip-rule="evenodd" d="M69.087 124.161c0-4.09 1.883-8.361 6.695-8.361h14.164c6.205-.001 12.057-5.222 12.057-11.46V91.392c3.195 0 7.093-4.298 7.093-7.34v-30.97c-3.566 0-7.012-.705-9.003-3.942-1.63-2.65-1.343-5.856.094-8.517l.006-.006.003-.005-.003-.001a4.109 4.109 0 0 1 1.217-1.38 3.903 3.903 0 0 0-.603 2.056c-.014 2.523 2.343 4.21 4.718 3.79 1.935-.343 3.146-1.946 3.486-3.779.68-3.656-1.532-6.404-4.025-8.675-3.718-3.387-5.642-7.455-6.75-12.456H79.239v-8.478H53.762v8.478H34.763c-1.107 5-3.031 9.069-6.75 12.456-2.492 2.272-4.704 5.02-4.024 8.676.34 1.832 1.55 3.435 3.486 3.778 2.375.42 4.732-1.266 4.718-3.79a3.897 3.897 0 0 0-.603-2.056c.505.358.922.838 1.217 1.38l-.002.001.002.006.006.005c1.436 2.661 1.724 5.868.094 8.517-1.991 3.237-5.437 3.943-9.003 3.943v30.969c0 3.043 3.897 7.34 7.093 7.34v12.949c0 6.237 5.852 11.458 12.057 11.46l14.163-.001c4.813 0 6.696 4.271 6.696 8.361h5.174Z" fill="#005BBB"/><path fill-rule="evenodd" clip-rule="evenodd" d="M63.118 24.41h-.55c.225-1.545 1.832-2.745 3.782-2.745h.285c1.949 0 3.556 1.2 3.781 2.746h-.55l.266.573h.311v4.848h-.276v1.09h7.403v-1.877h-.607v-8.548h.563l.568-.75h-.779v-2.2h.869l.497-.897h-1.107c-.038-.602-.158-1.063-.599-1.501-.296-.295-.629-.6-.56-1.077a2.85 2.85 0 0 1 .191-.616l-.237-.358H56.615l-.237.358c.081.206.162.418.19.616.07.478-.262.782-.56 1.077-.44.438-.56.9-.597 1.501h-1.108l.498.897h.868v2.2h-.778l.567.75h.564v8.548h-.608v1.878h7.403v-.943l-.276-.148v-4.848h.311l.266-.573Z" fill="#FFD500" stroke="#000" stroke-width=".929"/><path fill-rule="evenodd" clip-rule="evenodd" d="M65.218 19.466h2.548l-.457 2.449h-1.634l-.457-2.45ZM77.805 17.195l.252-.55h-23.13l.252.55h22.626ZM70.101 16.475c.002-.706.3-1.128.578-1.467.356-.435.599-.693.359-1.338l-.16.013c.188.5-.009.804-.337 1.145-.371.388-.844.824-.823 1.647h.383ZM74.313 16.242v-1.859h.223v1.859h1.193v-1.859h.224v2.088h-4.474v-2.088h.224v1.859h1.193v-1.859h.224v1.859h1.193ZM58.676 29.329l.31.38v.334l-.606-.238h-1.296l-.607.238v-.334l.31-.38-.042-8.581-.316-.468h1.899l.348.43v8.619Zm-.441-8.544h-1.129v8.476c.378-.004.752-.006 1.129 0v-8.476Z" fill="#000"/><path fill-rule="evenodd" clip-rule="evenodd" d="M63.132 20.176h-.703v2.498c.728-.986 1.936-1.597 3.122-1.792l-.057-.155c-.774.062-1.72.214-2.362.462v-1.013ZM62.883 16.475c-.001-.706-.3-1.128-.578-1.467-.356-.435-.598-.693-.358-1.338l.159.013c-.187.5.01.804.337 1.145.372.388.845.824.823 1.647h-.383Z" fill="#000"/><path fill-rule="evenodd" clip-rule="evenodd" d="m75.843 13.48-.143.322H57.285l-.143-.322h18.7ZM58.03 19.28h1.157v.277H58.03v-.276Zm1.885 0h1.157v.277h-1.157v-.276Zm1.885 0h1.157v.277H61.8v-.276Zm1.885 0h1.157v.277h-1.157v-.276Zm1.885 0h1.157v.277H65.57v-.276Zm1.884 0h1.158v.277h-1.158v-.276Zm1.885 0h1.158v.277h-1.158v-.276Zm1.885 0h1.157v.277h-1.157v-.276Zm1.885 0h1.157v.277H73.11v-.276Zm1.885 0h1.157v.277h-1.157v-.276Zm-18.849 0h1.157v.277h-1.157v-.276ZM69.673 16.475v-1.887H63.31v1.887h-.223V14.36h6.809v2.116h-.224ZM74.36 19.271h-.837v-2.215h.837v2.215Zm-1.497 0h-.836v-2.215h.836v2.215Zm-1.496 0h-.837v-2.215h.837v2.215Zm-1.497 0h-.836v-2.215h.836v2.215Zm-1.497 0h-.837v-2.215h.837v2.215Zm7.483 0h-.836v-2.215h.837v2.215Zm-17.231 0h.836v-2.215h-.836v2.215Zm1.496 0h.837v-2.215h-.837v2.215Zm1.497 0h.836v-2.215h-.836v2.215Zm1.496 0h.837v-2.215h-.837v2.215Zm1.497 0h.837v-2.215h-.837v2.215Zm-7.484 0h.838v-2.215h-.838v2.215Zm8.947 0h.837v-2.215h-.837v2.215ZM58.672 16.242v-1.859h-.224v1.859h-1.192v-1.859h-.224v2.088h4.473v-2.088h-.224v1.859h-1.193v-1.859h-.223v1.859h-1.193ZM59.99 29.329l-.31.38v.334l.607-.238h1.295l.607.238v-.334l-.31-.38.041-8.581.317-.468h-1.899l-.348.43v8.619Zm.441-8.544h1.129v8.476a45.134 45.134 0 0 0-1.129 0v-8.476ZM72.994 29.329l.31.38v.334l-.606-.238h-1.296l-.606.238v-.334l.31-.38-.042-8.581-.317-.468h1.899l.348.43v8.619Zm-.441-8.544h-1.128v8.476c.378-.004.751-.006 1.128 0v-8.476ZM74.308 29.329l-.31.38v.334l.607-.238H75.9l.606.238v-.334l-.31-.38.042-8.581.317-.468h-1.899l-.349.43v8.619Zm.441-8.544h1.13v8.476a45.18 45.18 0 0 0-1.13 0v-8.476ZM69.853 20.176h.703v2.498c-.728-.986-1.936-1.597-3.122-1.792l.057-.155c.773.062 1.719.214 2.362.462v-1.013Z" fill="#000"/><path fill-rule="evenodd" clip-rule="evenodd" d="m65.45 19.658.385 2.064h1.314l.385-2.064H65.45Zm1.159 1.668.14-1.387.192.018-.14 1.388-.192-.019Zm-.425.019-.14-1.388.192-.018.14 1.387-.192.019Z" fill="#FFD500"/><path fill-rule="evenodd" clip-rule="evenodd" d="M47.45.241h8.965a59.731 59.731 0 0 1 2.46 3.962h3.726V.241h7.442v3.962h3.724A59.534 59.534 0 0 1 76.228.241h8.966c-2.502 3.217-4.484 6.538-6.109 9.93H53.558c-1.624-3.392-3.606-6.713-6.109-9.93Z" fill="#FFD500" stroke="#A80" stroke-width="1.136"/><path fill-rule="evenodd" clip-rule="evenodd" d="M68.806 37.772a3.23 3.23 0 0 1-.004 4.584 3.272 3.272 0 0 1-4.608-.003 3.23 3.23 0 0 1 .003-4.585 3.272 3.272 0 0 1 4.609.004Zm-3.784.822a2.073 2.073 0 0 0 .001 2.938 2.1 2.1 0 0 0 2.955-.001c.814-.81.811-2.13-.002-2.939a2.099 2.099 0 0 0-2.954.002Z" fill="#FFD500"/><path fill-rule="evenodd" clip-rule="evenodd" d="M66.5 118.168c-1.522-3.708-5.221-6.188-9.283-6.188H43.054c-4.494 0-8.207-3.695-8.207-8.164l.005-16.255-2.757.002v-.005h-.003v.005c-2.395 0-4.339-1.974-4.339-4.317l.006-26.404c8.512-.965 12.916-11.127 7.669-18.108-1.553-2.065-4.188-3.533-6.77-2.582 1.01-1.056 2.194-1.968 2.941-2.634 2.856-2.547 4.84-5.562 6.119-9.516h15.03V21.5H35.84c-.846 3.821-2.594 7.563-5.254 10.481-1.279 1.402-2.859 2.5-3.998 4.03-1.346 1.81-2.055 4.994-.434 6.883 1.503 1.752 4.847.875 4.697-1.693-.07-1.198-.906-2.36-2.468-2.36-.707 0-1.345.29-1.802.757-.025-.722.368-1.431 1.033-1.844.766-.476 1.885-.574 2.888-.402 1.447.247 2.765 1.298 3.489 2.64 3.905 7.234-.977 14.423-8.747 14.423l.004 28.83c0 3.697 3.064 6.807 6.843 6.808v.005h.003v-.005h.243l.004 13.762c.001 5.851 4.83 10.655 10.712 10.656l14.163-.001c4.587.001 8.037 3.949 8.037 8.356h2.492c0-4.407 3.45-8.355 8.037-8.356l14.163.001c5.882-.001 10.711-4.805 10.711-10.656l.005-13.762h.243v.005h.002v-.005c3.779-.002 6.843-3.111 6.844-6.808l.005-28.83c-7.77 0-12.653-7.189-8.747-14.424.724-1.341 2.04-2.392 3.488-2.64 1.003-.171 2.122-.073 2.888.403.664.413 1.058 1.122 1.033 1.844a2.514 2.514 0 0 0-1.802-.757c-1.562 0-2.398 1.162-2.468 2.36-.15 2.568 3.193 3.445 4.697 1.693 1.621-1.89.911-5.074-.434-6.882-1.139-1.53-2.72-2.629-3.998-4.03-2.66-2.92-4.409-6.66-5.254-10.482H80.252V24h15.03c1.28 3.955 3.263 6.97 6.119 9.517.746.666 1.93 1.578 2.941 2.634-2.582-.95-5.217.517-6.77 2.582-5.247 6.98-.843 17.143 7.669 18.108l.005 26.404c0 2.344-1.943 4.316-4.339 4.317v-.005h-.002v.005l-2.757-.002.005 16.255c0 4.469-3.714 8.164-8.207 8.164H75.783c-4.062 0-7.761 2.48-9.283 6.188Z" fill="#FFD500"/><path fill-rule="evenodd" clip-rule="evenodd" d="M87.282 98.893h-2.038c-4.29 0-5.739-2.987-3.777-7.921l3.125-7.859c2.269-5.707 5.775-6.081 11.399-5.723-.056-6.542-1.111-13.532-4.44-19.627L79.03 88.982c-1.983 4.942-3.603 5.93-7.516 5.93h-10.03c-3.913 0-5.533-.988-7.516-5.93L41.45 57.763c-3.33 6.095-4.385 13.085-4.44 19.627 5.623-.358 9.13.016 11.399 5.723l3.125 7.859c1.962 4.934.513 7.921-3.778 7.921h-2.038v3.594h15.95c1.462 0 3.002.307 3.316 3.063h3.034c.314-2.756 1.853-3.063 3.315-3.063h15.95v-3.594Zm-1.636.993a.806.806 0 0 0-.808.804c0 .444.362.805.808.805a.807.807 0 0 0 .809-.805.806.806 0 0 0-.809-.804Zm5.98-36.622c-.687 0-1.244.36-1.244.804 0 .444.557.804 1.243.804.687 0 1.243-.36 1.243-.804 0-.444-.556-.804-1.243-.804Zm-50.252 0c.687 0 1.244.36 1.244.804 0 .444-.557.804-1.244.804-.686 0-1.243-.36-1.243-.804 0-.444.557-.804 1.243-.804Zm5.98 36.622c.446 0 .808.36.808.804a.807.807 0 0 1-.809.805.807.807 0 0 1-.808-.805c0-.444.362-.804.808-.804Z" fill="#FFD500"/><path fill-rule="evenodd" clip-rule="evenodd" d="M67.328 88.644c1.403 1.074 4.203 1.495 6.382-2.605.729-1.37 1.047-2.603 2.169-4.015-3.08 1.691-5.268-.648-7.285 2.304.299-1.834.12-3.122-.317-4.22-.437-1.097-1.133-1.92-1.756-3.473-.623 1.554-1.318 2.376-1.755 3.473-.437 1.098-.616 2.386-.317 4.22-2.018-2.952-4.204-.613-7.285-2.304 1.122 1.412 1.44 2.644 2.169 4.015 2.178 4.1 4.979 3.68 6.381 2.605v3.725h1.614v-3.725Z" fill="#FFD500"/><path fill-rule="evenodd" clip-rule="evenodd" d="M54.992 75.2c1.064 1.022 2.205 1.371 3.254 1.57 1.247.237 2.445.263 3.36 1.24 2.411 2.577-1.007 5.055-3.62 2.926-1.469-1.196-2.812-3.252-2.994-5.736Zm9.573-5.904c-.253 2.078-1.1 3.442-1.734 4.718-.489.985-1.008 1.963-.915 3.176.154 2 2.1 3.2 3.314 1.078.53-.924.953-2.044.964-3.178.016-1.851-.567-4.334-1.629-5.794Zm-11.697.36c1.064 1.021 2.206 1.37 3.255 1.57 1.246.235 2.444.263 3.359 1.24 2.412 2.576-1.007 5.055-3.62 2.926-1.469-1.197-2.812-3.252-2.994-5.736Zm9.584-5.88c-.254 2.078-1.102 3.442-1.735 4.719-.49.985-1.008 1.963-.915 3.175.153 2 2.1 3.2 3.314 1.079.529-.925.953-2.044.964-3.178.016-1.852-.568-4.334-1.628-5.794Zm-2.115-5.519c-.254 2.078-1.1 3.442-1.735 4.718-.488.985-1.007 1.964-.914 3.176.153 2 2.1 3.2 3.314 1.079.529-.925.953-2.044.963-3.178.017-1.852-.567-4.334-1.628-5.795Zm-9.593 5.854c1.064 1.022 2.206 1.371 3.255 1.57 1.246.236 2.444.263 3.36 1.24 2.41 2.576-1.008 5.055-3.62 2.926-1.47-1.197-2.813-3.252-2.995-5.736Zm-2.124-5.545c1.064 1.023 2.206 1.371 3.255 1.57 1.246.236 2.444.263 3.36 1.24 2.41 2.577-1.008 5.055-3.62 2.926-1.47-1.196-2.813-3.251-2.995-5.736Zm9.603-5.828c-.254 2.078-1.101 3.442-1.735 4.718-.489.986-1.007 1.964-.914 3.175.153 2 2.1 3.201 3.313 1.08.53-.926.954-2.044.964-3.178.017-1.852-.567-4.334-1.628-5.795Zm-2.115-5.519c-.253 2.078-1.1 3.442-1.734 4.718-.49.986-1.008 1.964-.915 3.175.153 2 2.1 3.201 3.314 1.08.529-.925.953-2.044.963-3.178.017-1.852-.566-4.334-1.628-5.795Zm-9.612 5.803c1.063 1.022 2.206 1.37 3.255 1.57 1.246.236 2.444.262 3.36 1.24 2.41 2.576-1.008 5.055-3.621 2.926-1.469-1.196-2.812-3.252-2.994-5.736Zm3.34-6.594c-.192 1.668-.373 3.413-.263 5.338.315 5.535 6.316.646 4.04-2.345-.979-1.287-2.579-2.294-3.778-2.993Zm-1.92 6.643-7.592-19.82.73-.436 7.703 20.111.065.568a4.93 4.93 0 0 1-.906-.423Zm.663-3.263-6.7-17.489.73-.437 6.1 15.922c-.086.651-.126 1.32-.13 2.004Zm.485-3.73-5.629-14.692.73-.437 5.564 14.526c-.15-.068-.3-.136-.451-.202l-.214.806Zm1.92.019L44.99 30.454l.73-.438 6.446 16.83a10.866 10.866 0 0 0-1.184-.749Zm2.744 2.169L46.547 29.52l.73-.437 7.589 19.812c-.064.186-.133.365-.204.539a12.213 12.213 0 0 0-.934-1.17Zm1.53-1-7.155-18.678.729-.437 6.643 17.343-.198 1.628-.02.145Zm-9.678 4.7-6.812-17.781.73-.438 6.907 18.031-.825.189ZM47.205 82.847l-8.517 19.415 4.485-4.191 5.423-11.764-1.123-2.827c-.088-.22-.176-.431-.268-.633Zm19.504-39.634-2.114-.006-4.752 10.83c.398 1.02.65 2.102.775 3.189.289.399.583.789.822 1.22l3.351-7.268h1.008v7.31h1.82v-7.31h1.007l3.35 7.267c.24-.431.534-.821.823-1.22.125-1.086.376-2.168.774-3.188l-4.75-10.83-2.114.006ZM52.288 71.261l-2.271 5.177 1.456 3.63 2.5-5.423a9.24 9.24 0 0 1-1.685-3.384Zm27.156 3.384 2.277 4.939 1.461-3.644-2.053-4.68a9.253 9.253 0 0 1-1.685 3.385Zm5.153 11.175 5.647 12.251 4.486 4.191-8.719-19.874c-.167.337-.329.7-.484 1.092l-.93 2.34ZM78.425 75.2c-1.063 1.022-2.205 1.371-3.254 1.57-1.247.237-2.445.263-3.36 1.24-2.411 2.577 1.007 5.055 3.62 2.926 1.469-1.196 2.813-3.252 2.994-5.736Zm-9.573-5.904c.254 2.078 1.101 3.442 1.735 4.718.489.985 1.007 1.963.914 3.176-.153 2-2.1 3.2-3.314 1.078-.528-.924-.953-2.044-.963-3.178-.017-1.851.567-4.334 1.628-5.794Zm11.697.36c-1.063 1.021-2.205 1.37-3.255 1.57-1.246.235-2.444.263-3.359 1.24-2.411 2.576 1.007 5.055 3.62 2.926 1.469-1.197 2.813-3.252 2.994-5.736Zm-9.583-5.88c.253 2.078 1.101 3.442 1.735 4.719.489.985 1.007 1.963.914 3.175-.153 2-2.1 3.2-3.313 1.079-.53-.925-.954-2.044-.964-3.178-.017-1.852.567-4.334 1.628-5.794Zm2.114-5.519c.254 2.078 1.102 3.442 1.735 4.718.488.985 1.008 1.964.915 3.176-.153 2-2.1 3.2-3.314 1.079-.53-.925-.954-2.044-.964-3.178-.016-1.852.567-4.334 1.628-5.795Zm9.593 5.854c-1.064 1.022-2.205 1.371-3.254 1.57-1.247.236-2.445.263-3.36 1.24-2.411 2.576 1.007 5.055 3.62 2.926 1.469-1.197 2.813-3.252 2.994-5.736Zm2.124-5.545c-1.063 1.023-2.205 1.371-3.254 1.57-1.247.236-2.445.263-3.36 1.24-2.411 2.577 1.007 5.055 3.62 2.926 1.469-1.196 2.813-3.251 2.994-5.736Zm-9.602-5.828c.253 2.078 1.1 3.442 1.734 4.718.489.986 1.007 1.964.915 3.175-.154 2-2.1 3.201-3.314 1.08-.53-.926-.954-2.044-.964-3.178-.016-1.852.568-4.334 1.629-5.795Zm2.114-5.519c.254 2.078 1.102 3.442 1.734 4.718.49.986 1.008 1.964.916 3.175-.154 2-2.1 3.201-3.315 1.08-.529-.925-.953-2.044-.963-3.178-.017-1.852.567-4.334 1.628-5.795Zm9.613 5.803c-1.064 1.022-2.206 1.37-3.255 1.57-1.246.236-2.445.262-3.36 1.24-2.41 2.576 1.007 5.055 3.62 2.926 1.47-1.196 2.813-3.252 2.995-5.736Zm-3.34-6.594c.191 1.668.372 3.413.263 5.338-.315 5.535-6.317.646-4.04-2.345.978-1.287 2.578-2.294 3.777-2.993Zm1.92 6.643 7.591-19.82-.729-.436-7.704 20.111c-.02.19-.043.379-.065.568a4.962 4.962 0 0 0 .906-.423Zm-.663-3.263 6.699-17.489-.73-.437-6.099 15.922c.086.651.125 1.32.13 2.004Zm-.485-3.73 5.628-14.692-.729-.437-5.565 14.526c.15-.068.3-.136.452-.202l.214.806Zm-1.92.019 5.992-15.643-.73-.438-6.445 16.83c.38-.28.775-.525 1.183-.749Zm-2.744 2.169 7.18-18.745-.729-.437-7.59 19.812c.064.186.133.365.204.539.287-.407.599-.799.935-1.17Zm-1.53-1 7.155-18.678-.73-.437-6.643 17.343.198 1.628.02.145Zm9.678 4.7 6.812-17.781-.73-.438-6.907 18.031.825.189ZM101.737 129.763l6.999-8.147 4.646-8.006 3.063-7.44-1.574-5.092 2.688-9.926 1.878-10.64 8.614-2.688 1.094 2.62-4.412 12.447 3.395 1.761-1.736 10.24-3.172 9.75-5.219 13.065-10.625 7.87-5.639-5.814Z" fill="#FFD500"/><path fill-rule="evenodd" clip-rule="evenodd" d="M122.151 51.901c.201.73.04 1.07-.318.56-1.861-2.646-3.161.193-1.001 2.345.649.646.34 1.059-.303.856-2.126-.676-1.815 1.33.378 3.17.51.429.345 1.17-.211 1.015-3.698-1.024-.72 3.626 1.056 4.243.761.264.308.42-.267.526-2.292.425.196 2.466 1.388 3.45l.393.577.448-.61c.641-.536 1.385-1.579 2.456-2.71.832-.88 2.187-1.804 1.756-2.639-.428-.829-.691-.574-1.406-.378-.717.196-1.33.035-.408-.707 2.502-2.017 2.571-5.252.496-4.46-.809.309-.936-.206-.248-.797 2.502-2.15 1.522-5.37-1.022-3.733-.701.452-.462.02-.298-.949.547-3.234-4.076-4.082-2.889.241Z" fill="url('#paint0_linear_6_695')" stroke="#A80" stroke-width="1.136"/><path fill-rule="evenodd" clip-rule="evenodd" d="m123.567 68.135-.276.323-.276-.29a76.916 76.916 0 0 1-.049-3.833c-1.202-.843-1.942-1.748-2.655-2.851l.102-.077c.735.957 1.568 1.837 2.559 2.468.016-1.103.05-2.2.092-3.296-1.146-1.414-1.829-2.585-2.531-3.897l.11-.064a22.495 22.495 0 0 0 2.443 3.375l.101-2.389.052-1.194c-1.166-1.113-1.651-2.217-2.084-3.135l.113-.058c.368.71 1.156 2.015 1.99 2.735.069-1.747.105-3.5-.038-5.403l-.003-.033.128-.01.002.034c.164 2.177.287 4.294.293 6.392.843-.831 1.567-1.712 2.152-2.763l.111.061c-.685 1.27-1.241 2.197-2.264 3.251v.142c-.011 1.17-.05 2.34-.088 3.51 1.029-.824 1.952-1.834 2.606-2.982l.111.063c-.795 1.394-1.468 2.367-2.734 3.456-.068 2.155-.117 4.309.033 6.465Z" fill="#A80"/><path fill-rule="evenodd" clip-rule="evenodd" d="M119.597 64.368c.263.711.132 1.063-.269.585-2.079-2.481-3.131.457-.795 2.42.702.59.429 1.027-.228.878-2.177-.494-1.695 1.478.647 3.128.545.384.444 1.136-.123 1.029-3.77-.71-.406 3.674 1.415 4.139.782.2.344.393-.22.547-2.247.616.406 2.44 1.679 3.321l.44.542.394-.646c.593-.588 1.244-1.69 2.214-2.906.754-.947 2.024-1.981 1.523-2.777-.497-.79-.737-.514-1.433-.26-.697.257-1.322.147-.467-.67 2.319-2.219 2.111-5.45.112-4.485-.779.375-.95-.127-.315-.774 2.307-2.353 1.055-5.478-1.338-3.633-.659.508-.459.058-.379-.921.268-3.269-4.409-3.725-2.857.483Z" fill="url('#paint1_linear_6_695')" stroke="#A80" stroke-width="1.136"/><path fill-rule="evenodd" clip-rule="evenodd" d="m122.399 80.426-.248.344-.299-.265a77.634 77.634 0 0 1-.378-3.816c-1.268-.74-2.083-1.578-2.888-2.618l.095-.084c.814.891 1.719 1.698 2.76 2.243-.078-1.1-.139-2.196-.191-3.292-1.262-1.313-2.042-2.422-2.855-3.67l.104-.073a22.508 22.508 0 0 0 2.724 3.158c-.037-.796-.071-1.592-.105-2.39l-.051-1.194c-1.256-1.01-1.834-2.07-2.343-2.948l.107-.068c.427.677 1.324 1.911 2.216 2.558-.081-1.746-.195-3.496-.501-5.38l-.005-.033.126-.02.005.033c.35 2.155.654 4.255.84 6.345.767-.9 1.414-1.838 1.905-2.934l.117.052c-.573 1.322-1.048 2.292-1.976 3.43l.012.141c.089 1.167.15 2.336.213 3.504.954-.907 1.786-1.991 2.34-3.19l.115.053c-.672 1.457-1.259 2.483-2.426 3.674.117 2.153.253 4.303.587 6.44Z" fill="#A80"/><path fill-rule="evenodd" clip-rule="evenodd" d="M126.277 65.291c.071.755-.146 1.062-.41.498-1.371-2.925-3.143-.35-1.392 2.14.527.748.15 1.102-.446.792-1.975-1.028-2.017 1-.18 3.188.428.51.137 1.211-.383.965-3.46-1.64-1.338 3.45.302 4.36.704.39.23.468-.354.474-2.329.028-.236 2.463.767 3.636l.286.636.547-.525c.724-.42 1.636-1.32 2.886-2.251.972-.725 2.466-1.405 2.187-2.301-.277-.89-.58-.684-1.318-.613-.739.071-1.314-.193-.279-.767 2.812-1.56 3.442-4.737 1.263-4.31-.849.166-.885-.362-.106-.828 2.835-1.692 2.43-5.03-.357-3.852-.768.326-.458-.06-.129-.986 1.101-3.094-3.301-4.718-2.884-.255Z" fill="url('#paint2_linear_6_695')" stroke="#A80" stroke-width="1.136"/><path fill-rule="evenodd" clip-rule="evenodd" d="m124.852 81.53-.328.27-.221-.332c.174-1.28.385-2.538.617-3.786-1.035-1.036-1.606-2.053-2.116-3.262l.113-.058c.557 1.069 1.224 2.077 2.089 2.868.208-1.084.431-2.159.663-3.232-.882-1.589-1.35-2.859-1.813-4.272l.119-.044a22.41 22.41 0 0 0 1.818 3.743c.169-.779.341-1.557.514-2.337l.258-1.168c-.954-1.295-1.239-2.466-1.505-3.444l.121-.038c.238.762.787 2.183 1.482 3.034.371-1.71.711-3.43.9-5.33l.004-.033.126.012-.003.034c-.217 2.172-.463 4.28-.821 6.348.973-.675 1.838-1.42 2.595-2.355l.099.079c-.893 1.134-1.602 1.952-2.79 2.817l-.025.14c-.215 1.151-.456 2.297-.696 3.442 1.155-.635 2.238-1.474 3.081-2.493l.098.081c-1.024 1.239-1.855 2.082-3.289 2.94-.441 2.111-.863 4.225-1.09 6.375Z" fill="#A80"/><path fill-rule="evenodd" clip-rule="evenodd" d="M119.006 76.34c.224.725.074 1.069-.3.57-1.943-2.589-3.154.288-.927 2.374.669.626.372 1.048-.276.864-2.147-.61-1.773 1.385.476 3.157.523.413.382 1.159-.179 1.022-3.728-.911-.607 3.646 1.188 4.208.77.24.321.41-.25.534-2.278.495.273 2.459 1.496 3.406l.41.565.429-.624c.624-.555 1.335-1.62 2.37-2.783.805-.904 2.131-1.87 1.674-2.691-.454-.816-.709-.553-1.417-.335-.711.218-1.329.075-.431-.695 2.438-2.091 2.407-5.328.357-4.472-.799.333-.942-.178-.273-.79 2.434-2.225 1.353-5.412-1.138-3.699-.687.473-.462.034-.328-.94.446-3.249-4.202-3.955-2.881.33Z" fill="url('#paint3_linear_6_695')" stroke="#A80" stroke-width="1.136"/><path fill-rule="evenodd" clip-rule="evenodd" d="m120.928 92.523-.266.33-.285-.28a77.675 77.675 0 0 1-.169-3.83c-1.227-.806-1.996-1.688-2.742-2.769l.098-.08c.765.934 1.626 1.788 2.636 2.388-.018-1.102-.019-2.2-.011-3.297-1.19-1.378-1.908-2.527-2.652-3.817l.108-.068a22.465 22.465 0 0 0 2.549 3.3c.007-.797.016-1.594.026-2.392l.014-1.195c-1.2-1.076-1.719-2.165-2.18-3.07l.111-.06c.39.697 1.218 1.978 2.074 2.672.014-1.748-.004-3.501-.206-5.399l-.004-.033.127-.013.004.033c.231 2.17.42 4.283.492 6.38.816-.857 1.513-1.76 2.065-2.827l.113.057c-.645 1.29-1.173 2.233-2.162 3.319l.004.142c.025 1.17.023 2.34.022 3.51 1.002-.855 1.894-1.893 2.512-3.06l.113.06c-.752 1.418-1.394 2.41-2.626 3.538 0 2.156.018 4.31.235 6.46Z" fill="#A80"/><path fill-rule="evenodd" clip-rule="evenodd" d="M127.458 80.779c-.137.745-.43.983-.53.369-.525-3.186-2.93-1.182-1.921 1.686.303.862-.155 1.102-.645.643-1.622-1.522-2.213.42-1.039 3.022.273.606-.198 1.203-.631.826-2.885-2.51-2.226 2.963-.895 4.28.571.566.095.513-.469.362-2.249-.6-.896 2.309-.25 3.708l.103.689.668-.359c.811-.208 1.934-.83 3.39-1.391 1.133-.437 2.755-.69 2.73-1.628-.025-.932-.372-.814-1.101-.944-.732-.131-1.213-.54-.061-.814 3.13-.746 4.6-3.636 2.387-3.811-.863-.069-.753-.587.123-.826 3.189-.868 3.706-4.192.703-3.806-.827.107-.425-.18.144-.985 1.9-2.683-1.895-5.43-2.706-1.021Z" fill="url('#paint4_linear_6_695')" stroke="#A80" stroke-width="1.136"/><path fill-rule="evenodd" clip-rule="evenodd" d="m121.673 96.033-.389.173-.122-.38a75.77 75.77 0 0 1 1.623-3.48c-.716-1.275-.989-2.409-1.151-3.71l.125-.026c.245 1.18.613 2.33 1.231 3.324.494-.987 1.002-1.963 1.516-2.934-.417-1.767-.522-3.116-.585-4.602l.127-.01a22.45 22.45 0 0 0 .733 4.093c.375-.704.752-1.407 1.13-2.112l.566-1.055c-.567-1.504-.523-2.708-.513-3.722l.127-.004c.022.798.164 2.314.602 3.32.821-1.546 1.616-3.112 2.315-4.89l.012-.031.119.046-.013.031c-.799 2.034-1.609 3.998-2.515 5.893 1.12-.389 2.155-.873 3.138-1.57l.074.103c-1.169.852-2.073 1.449-3.452 1.962l-.062.128c-.519 1.051-1.063 2.09-1.605 3.128 1.284-.301 2.555-.817 3.643-1.572l.073.104c-1.323.917-2.352 1.506-3.965 1.946-.998 1.915-1.979 3.837-2.782 5.847Z" fill="#A80"/><path fill-rule="evenodd" clip-rule="evenodd" d="M115.549 89.336c.362.667.283 1.034-.181.617-2.413-2.163-3.032.894-.44 2.508.779.485.572.957-.099.902-2.224-.182-1.464 1.702 1.089 3.005.594.304.602 1.063.026 1.037-3.831-.171.125 3.695 1.993 3.898.802.087.396.341-.139.573-2.134.927.752 2.359 2.136 3.051l.514.475.297-.695c.502-.666.987-1.848 1.772-3.19.61-1.043 1.717-2.247 1.108-2.965-.605-.712-.803-.404-1.454-.054-.653.352-1.287.331-.559-.598 1.975-2.524 1.306-5.693-.532-4.457-.717.482-.958.009-.423-.721 1.944-2.656.257-5.573-1.845-3.409-.579.597-.446.123-.507-.858-.203-3.275-4.895-3.067-2.756.88Z" fill="url('#paint5_linear_6_695')" stroke="#A80" stroke-width="1.136"/><path fill-rule="evenodd" clip-rule="evenodd" d="m120.623 104.839-.195.376-.334-.22a78.374 78.374 0 0 1-.921-3.725c-1.36-.553-2.287-1.269-3.231-2.184l.081-.098c.933.768 1.944 1.439 3.051 1.832a142.088 142.088 0 0 1-.661-3.232c-1.436-1.121-2.366-2.11-3.349-3.231l.092-.087a22.642 22.642 0 0 0 3.146 2.742c-.15-.782-.298-1.566-.446-2.35l-.221-1.175c-1.388-.824-2.111-1.791-2.741-2.59l.097-.08c.519.609 1.583 1.704 2.557 2.219-.33-1.718-.694-3.433-1.266-5.256l-.01-.032.121-.037.011.032c.654 2.084 1.256 4.12 1.74 6.163.63-.999 1.134-2.02 1.463-3.174l.123.035c-.377 1.39-.708 2.418-1.462 3.674l.032.139c.256 1.142.484 2.29.713 3.439.814-1.033 1.481-2.224 1.857-3.489l.122.037c-.456 1.537-.89 2.635-1.873 3.98.425 2.114.867 4.224 1.504 6.292Z" fill="#A80"/><path fill-rule="evenodd" clip-rule="evenodd" d="M129.405 93.587c-.362.667-.714.802-.619.187.49-3.193-2.421-2.032-2.35 1.01.021.913-.49.999-.813.41-1.071-1.949-2.237-.284-1.927 2.554.072.66-.562 1.083-.857.59-1.965-3.281-3.037 2.129-2.18 3.795.368.714-.068.516-.558.198-1.954-1.268-1.569 1.918-1.389 3.449l-.116.688.747-.134c.836.052 2.098-.192 3.657-.274 1.213-.065 2.835.197 3.103-.703.265-.894-.102-.89-.755-1.239-.655-.351-.987-.889.195-.793 3.209.26 5.505-2.034 3.453-2.886-.799-.332-.534-.791.374-.747 3.302.163 4.826-2.84 1.85-3.402-.82-.155-.348-.304.443-.893 2.64-1.963-.117-5.753-2.258-1.81Z" fill="url('#paint6_linear_6_695')" stroke="#A80" stroke-width="1.136"/><path fill-rule="evenodd" clip-rule="evenodd" d="m119.165 106.307-.423.044.001-.399a78.243 78.243 0 0 1 2.624-2.808c-.284-1.436-.192-2.599.057-3.887l.127.014c-.132 1.198-.139 2.407.14 3.544.777-.786 1.562-1.557 2.354-2.322.151-1.81.47-3.126.872-4.558l.124.029a22.382 22.382 0 0 0-.574 4.121l1.731-1.66.866-.828c-.072-1.606.343-2.738.667-3.7l.122.036c-.226.767-.562 2.252-.458 3.345 1.262-1.216 2.504-2.459 3.721-3.934l.022-.026.098.08-.021.026c-1.392 1.688-2.772 3.305-4.223 4.827 1.186-.023 2.322-.163 3.474-.521l.038.12c-1.376.449-2.422.737-3.894.797l-.099.103c-.82.84-1.66 1.659-2.498 2.479 1.316.111 2.685.014 3.955-.367l.036.121c-1.543.463-2.705.705-4.377.623-1.543 1.513-3.074 3.037-4.462 4.701Z" fill="#A80"/><path fill-rule="evenodd" clip-rule="evenodd" d="M113.546 102.254c.371.662.298 1.03-.173.62-2.444-2.128-3.018.938-.402 2.515.785.473.585.948-.087.903-2.225-.15-1.438 1.723 1.134 2.989.598.295.617 1.053.041 1.036-3.832-.115.18 3.693 2.051 3.869.803.075.401.335-.131.575-2.119.958.787 2.348 2.181 3.02l.521.466.286-.699c.492-.673.96-1.862 1.725-3.215.594-1.052 1.684-2.272 1.064-2.981-.616-.703-.809-.392-1.455-.032-.647.361-1.281.349-.567-.59 1.937-2.553 1.221-5.712-.598-4.449-.71.492-.958.022-.434-.715 1.905-2.684.175-5.576-1.894-3.382-.57.605-.444.129-.52-.851-.252-3.271-4.939-2.995-2.742.921Z" fill="url('#paint7_linear_6_695')" stroke="#A80" stroke-width="1.136"/><path fill-rule="evenodd" clip-rule="evenodd" d="m118.848 117.682-.19.379-.337-.215a77.583 77.583 0 0 1-.976-3.711c-1.368-.533-2.305-1.235-3.263-2.137l.08-.099c.944.755 1.965 1.411 3.078 1.787a141.682 141.682 0 0 1-.709-3.222c-1.453-1.1-2.397-2.075-3.396-3.182l.091-.088a22.634 22.634 0 0 0 3.186 2.696c-.162-.78-.321-1.561-.481-2.344l-.239-1.172c-1.399-.803-2.136-1.76-2.778-2.548l.095-.083c.529.601 1.608 1.682 2.59 2.182-.356-1.713-.745-3.423-1.344-5.237l-.011-.032.122-.039.01.032c.686 2.074 1.318 4.101 1.831 6.137.615-1.008 1.105-2.035 1.417-3.194l.122.032c-.356 1.396-.671 2.428-1.407 3.695l.034.139c.273 1.139.518 2.283.764 3.428.798-1.044 1.448-2.245 1.805-3.515l.122.035c-.433 1.543-.85 2.647-1.813 4.006.456 2.108.93 4.212 1.597 6.27Z" fill="#A80"/><path fill-rule="evenodd" clip-rule="evenodd" d="M128.397 104.25c-.418.633-.78.737-.633.132.764-3.139-2.236-2.233-2.429.803-.058.912-.574.954-.846.34-.898-2.036-2.204-.478-2.14 2.377.014.665-.653 1.031-.905.514-1.674-3.439-3.21 1.859-2.5 3.593.305.743-.113.508-.573.149-1.837-1.431-1.73 1.776-1.682 3.317l-.175.675.756-.069c.828.125 2.106-.009 3.667.044 1.214.04 2.808.441 3.152-.433.342-.868-.024-.895-.645-1.3-.622-.406-.906-.971.263-.773 3.175.536 5.661-1.551 3.691-2.577-.768-.4-.464-.835.436-.712 3.277.447 5.055-2.413 2.138-3.231-.804-.225-.321-.332.518-.85 2.801-1.729.381-5.743-2.093-1.999Z" fill="url('#paint8_linear_6_695')" stroke="#A80" stroke-width="1.136"/><path fill-rule="evenodd" clip-rule="evenodd" d="m117.095 116.04-.426.007.036-.397a77.615 77.615 0 0 1 2.857-2.572c-.159-1.455.033-2.606.393-3.868l.125.025c-.235 1.182-.347 2.386-.167 3.544.842-.717 1.692-1.417 2.546-2.111.308-1.79.739-3.074 1.263-4.467l.121.04a22.389 22.389 0 0 0-.927 4.057c.621-.502 1.244-1.002 1.868-1.504l.934-.751c.067-1.606.579-2.699.985-3.629l.118.046c-.292.745-.754 2.196-.745 3.294 1.363-1.103 2.708-2.234 4.048-3.599l.024-.024.091.089-.024.024c-1.533 1.561-3.047 3.053-4.625 4.445 1.184.079 2.328.038 3.507-.22l.027.124c-1.41.328-2.477.524-3.948.458l-.108.094c-.89.765-1.797 1.509-2.704 2.254 1.302.224 2.674.245 3.973-.024l.026.124c-1.578.328-2.757.468-4.416.242-1.669 1.374-3.325 2.761-4.852 4.299Z" fill="#A80"/><path fill-rule="evenodd" clip-rule="evenodd" d="M111.335 112.728c.059.756-.163 1.059-.418.492-1.323-2.947-3.137-.4-1.426 2.117.514.756.132 1.104-.459.784-1.958-1.059-2.033.969-.231 3.186.419.516.117 1.213-.399.958-3.433-1.695-1.394 3.429.231 4.365.697.401.223.471-.361.468-2.329-.009-.276 2.459.708 3.648l.276.64.554-.516c.731-.407 1.658-1.293 2.923-2.205.984-.709 2.488-1.365 2.223-2.266-.262-.894-.569-.692-1.307-.633-.741.059-1.311-.214-.267-.772 2.837-1.515 3.518-4.681 1.333-4.289-.852.153-.879-.376-.093-.829 2.862-1.648 2.511-4.992-.294-3.858-.773.313-.458-.067-.113-.988 1.15-3.076-3.224-4.77-2.88-.302Z" fill="url('#paint9_linear_6_695')" stroke="#A80" stroke-width="1.136"/><path fill-rule="evenodd" clip-rule="evenodd" d="m109.647 128.942-.332.266-.215-.336c.194-1.276.425-2.532.678-3.776-1.018-1.052-1.573-2.078-2.063-3.295l.114-.057c.54 1.078 1.19 2.097 2.042 2.901.225-1.08.466-2.151.715-3.221-.856-1.602-1.303-2.88-1.743-4.3l.119-.042a22.452 22.452 0 0 0 1.757 3.771l.552-2.328.277-1.164c-.933-1.31-1.199-2.485-1.449-3.468l.122-.036c.226.766.751 2.195 1.432 3.057.399-1.703.767-3.418.987-5.314l.004-.034.126.015-.004.034c-.252 2.168-.532 4.272-.923 6.334.983-.66 1.861-1.391 2.633-2.314l.097.081c-.912 1.12-1.633 1.926-2.835 2.772l-.028.14c-.232 1.148-.493 2.289-.751 3.431 1.165-.617 2.261-1.438 3.121-2.444l.096.082c-1.044 1.222-1.888 2.053-3.336 2.887-.474 2.104-.931 4.211-1.193 6.358Z" fill="#A80"/><path fill-rule="evenodd" clip-rule="evenodd" d="M125.149 114.788c-.494.576-.867.634-.644.052 1.154-3.018-1.937-2.498-2.512.49-.173.898-.69.874-.882.231-.634-2.133-2.126-.751-2.424 2.089-.069.661-.778.941-.962.396-1.228-3.623-3.42 1.44-2.934 3.25.209.777-.176.49-.587.076-1.643-1.652-1.941 1.544-2.088 3.08l-.259.647.759.027c.806.228 2.091.256 3.634.505 1.199.193 2.729.792 3.181-.032.449-.818.089-.891-.476-1.371-.566-.481-.776-1.078.359-.734 3.083.932 5.812-.826 3.987-2.092-.712-.494-.355-.887.523-.652 3.195.857 5.319-1.757 2.529-2.936-.77-.324-.277-.37.621-.779 2.997-1.362 1.102-5.65-1.825-2.247Z" fill="url('#paint10_linear_6_695')" stroke="#A80" stroke-width="1.136"/><path fill-rule="evenodd" clip-rule="evenodd" d="m112.447 125.064-.424-.047.086-.389a77.446 77.446 0 0 1 3.16-2.192c.026-1.464.361-2.582.878-3.789l.121.04c-.382 1.144-.645 2.325-.613 3.496.926-.605 1.857-1.193 2.793-1.774.531-1.738 1.121-2.958 1.817-4.274l.115.055a22.47 22.47 0 0 0-1.433 3.91c.68-.42 1.361-.839 2.044-1.258l1.022-.627c.269-1.586.915-2.605 1.435-3.477l.112.06c-.384.702-1.026 2.084-1.156 3.175 1.492-.923 2.969-1.876 4.471-3.062l.027-.021.079.1-.026.021c-1.718 1.356-3.41 2.646-5.151 3.828 1.165.228 2.305.332 3.508.224l.011.126c-1.44.148-2.524.209-3.976-.043l-.118.08c-.98.647-1.974 1.271-2.968 1.896 1.264.386 2.623.581 3.945.477l.01.126c-1.606.127-2.794.117-4.411-.316-1.83 1.154-3.649 2.321-5.358 3.655Z" fill="#A80"/><path fill-rule="evenodd" clip-rule="evenodd" d="M120.874 125.535c-.623.436-.998.4-.638-.109 1.869-2.64-1.257-2.899-2.556-.145-.39.828-.886.677-.912.006-.085-2.223-1.874-1.253-2.868 1.426-.232.624-.988.72-1.031.146-.29-3.814-3.672.552-3.651 2.426.01.804-.292.431-.588-.071-1.181-2.007-2.264 1.017-2.788 2.468l-.412.564.729.213c.725.421 1.963.765 3.396 1.387 1.115.483 2.449 1.44 3.092.754.638-.682.307-.842-.121-1.446-.429-.607-.485-1.236.53-.623 2.756 1.664 5.838.634 4.383-1.043-.566-.654-.123-.948.669-.503 2.884 1.619 5.592-.39 3.18-2.221-.665-.504-.176-.427.796-.601 3.243-.581 2.472-5.203-1.21-2.628Z" fill="url('#paint11_linear_6_695')" stroke="#A80" stroke-width="1.136"/><path fill-rule="evenodd" clip-rule="evenodd" d="m106.011 132.358-.399-.15.179-.356a76.715 76.715 0 0 1 3.608-1.344c.388-1.413.991-2.414 1.791-3.456l.107.069c-.654 1.014-1.202 2.094-1.461 3.237 1.047-.358 2.096-.698 3.147-1.03.946-1.553 1.821-2.59 2.822-3.693l.098.081a22.454 22.454 0 0 0-2.359 3.436c.763-.24 1.527-.477 2.293-.714l1.146-.356c.655-1.471 1.534-2.299 2.254-3.016l.094.086c-.546.586-1.512 1.767-1.909 2.792 1.675-.526 3.344-1.085 5.094-1.864l.031-.014.052.117-.031.013c-2.002.891-3.961 1.723-5.943 2.439 1.073.509 2.152.891 3.344 1.083l-.02.125c-1.433-.212-2.498-.421-3.843-1.023l-.134.048c-1.11.385-2.229.744-3.347 1.105 1.128.687 2.397 1.21 3.705 1.436l-.022.125c-1.589-.274-2.737-.576-4.197-1.395-2.06.666-4.113 1.349-6.1 2.219Z" fill="#A80"/><path fill-rule="evenodd" clip-rule="evenodd" d="M114.515 132.96c-.685.329-1.05.232-.611-.211 2.278-2.301-.764-3.062-2.499-.557-.521.753-.985.524-.9-.142.281-2.206-1.644-1.539-3.065.942-.331.577-1.093.549-1.041-.023.34-3.808-3.715-.051-4.002 1.8-.122.794-.359.378-.568-.166-.837-2.169-2.402.637-3.157 1.983l-.5.489.685.328c.646.532 1.812 1.072 3.124 1.918 1.02.657 2.18 1.817 2.927 1.245.741-.57.441-.781.118-1.446-.324-.668-.275-1.298.625-.529 2.447 2.088 5.658 1.572 4.498-.318-.452-.737.033-.954.742-.387 2.58 2.063 5.583.522 3.503-1.675-.573-.605-.103-.45.884-.464 3.296-.047 3.294-4.73-.763-2.787Z" fill="url('#paint12_linear_6_695')" stroke="#A80" stroke-width="1.136"/><path fill-rule="evenodd" clip-rule="evenodd" d="m98.728 137.279-.37-.212.237-.322a76.158 76.158 0 0 1 3.78-.741c.615-1.33 1.375-2.219 2.336-3.117l.094.085c-.812.894-1.531 1.869-1.974 2.954 1.093-.182 2.183-.348 3.274-.504 1.19-1.379 2.223-2.26 3.392-3.185l.084.096a22.508 22.508 0 0 0-2.893 3.005c.792-.112 1.586-.222 2.38-.332l1.19-.165c.888-1.345 1.891-2.019 2.719-2.609l.078.1c-.635.489-1.782 1.497-2.341 2.444 1.739-.248 3.478-.528 5.333-1.012l.032-.009.032.123-.032.009c-2.122.553-4.192 1.056-6.265 1.441.975.676 1.977 1.227 3.122 1.61l-.04.12c-1.38-.441-2.396-.82-3.624-1.631l-.141.025c-1.159.2-2.322.373-3.484.547 1 .86 2.167 1.582 3.42 2.017l-.042.12c-1.523-.528-2.607-1.012-3.913-2.057-2.142.323-4.28.664-6.384 1.2Z" fill="#A80"/><path fill-rule="evenodd" clip-rule="evenodd" d="M105.126 122.439c-.197.732-.508.945-.558.325-.266-3.218-2.826-1.414-2.051 1.527.232.883-.244 1.085-.695.588-1.494-1.647-2.24.242-1.28 2.93.223.625-.294 1.183-.696.772-2.673-2.734-2.458 2.775-1.237 4.196.523.609.053.517-.497.322-2.194-.779-1.08 2.229-.549 3.676l.047.695.695-.303c.825-.143 1.995-.673 3.492-1.115 1.164-.344 2.801-.466 2.853-1.403.05-.931-.306-.842-1.022-1.03-.719-.189-1.166-.636.005-.816 3.181-.492 4.88-3.255 2.687-3.607-.854-.138-.703-.646.19-.814 3.248-.608 4.032-3.881 1.008-3.737-.833.04-.409-.215.223-.97 2.111-2.522-1.45-5.567-2.615-1.236Z" fill="url('#paint13_linear_6_695')" stroke="#A80" stroke-width="1.136"/><path fill-rule="evenodd" clip-rule="evenodd" d="m98.127 137.18-.402.141-.09-.388a77.334 77.334 0 0 1 1.898-3.338c-.61-1.33-.791-2.482-.847-3.792l.126-.016c.15 1.195.423 2.372.959 3.413.572-.945 1.157-1.876 1.748-2.803-.273-1.795-.269-3.149-.211-4.634l.127-.001a22.46 22.46 0 0 0 .4 4.14c.431-.672.864-1.343 1.297-2.015l.649-1.006c-.442-1.545-.302-2.742-.21-3.752l.127.006c-.042.798-.024 2.32.332 3.359.944-1.476 1.862-2.972 2.703-4.689l.014-.03.115.055-.015.031c-.961 1.963-1.927 3.855-2.984 5.672 1.148-.298 2.22-.697 3.256-1.313l.065.108c-1.234.755-2.183 1.278-3.599 1.679l-.073.123c-.602 1.006-1.228 1.997-1.853 2.989 1.305-.198 2.613-.61 3.759-1.274l.064.109c-1.392.808-2.466 1.313-4.11 1.621-1.149 1.829-2.282 3.666-3.245 5.605Z" fill="#A80"/><path fill-rule="evenodd" clip-rule="evenodd" d="m31.264 129.763-7-8.147-4.646-8.006-3.063-7.44 1.574-5.092-2.688-9.926-1.878-10.64-8.613-2.688-1.095 2.62L8.267 92.89l-3.395 1.761 1.736 10.24 3.172 9.75L15 127.707l10.624 7.87 5.64-5.814Z" fill="#FFD500"/><path fill-rule="evenodd" clip-rule="evenodd" d="M10.85 51.901c-.202.73-.04 1.07.317.56 1.86-2.646 3.16.193 1 2.345-.648.646-.339 1.06.303.856 2.127-.675 1.816 1.33-.377 3.17-.51.429-.345 1.17.211 1.015 3.697-1.024.72 3.626-1.056 4.243-.762.264-.308.42.267.526 2.292.425-.196 2.466-1.389 3.45l-.392.577-.448-.61c-.641-.536-1.385-1.579-2.456-2.71-.832-.88-2.187-1.803-1.756-2.639.428-.829.69-.573 1.406-.378.717.196 1.33.035.408-.707-2.502-2.016-2.571-5.252-.496-4.46.808.309.935-.206.248-.797-2.502-2.15-1.522-5.37 1.022-3.732.7.451.462.02.298-.95-.548-3.234 4.076-4.082 2.89.241Z" fill="url('#paint14_linear_6_695')" stroke="#A80" stroke-width="1.136"/><path fill-rule="evenodd" clip-rule="evenodd" d="m9.433 68.135.276.323.276-.29c.051-1.289.062-2.565.05-3.833 1.2-.843 1.941-1.748 2.654-2.851l-.102-.077c-.735.957-1.568 1.837-2.559 2.468-.016-1.103-.05-2.2-.092-3.296 1.146-1.414 1.828-2.585 2.531-3.897l-.11-.064a22.503 22.503 0 0 1-2.444 3.375 805.64 805.64 0 0 0-.1-2.389L9.76 56.41c1.166-1.113 1.65-2.217 2.083-3.135l-.113-.058c-.367.71-1.155 2.015-1.989 2.735-.069-1.747-.105-3.5.038-5.403l.003-.033-.128-.01-.002.034c-.164 2.177-.287 4.294-.293 6.392-.843-.831-1.567-1.712-2.152-2.763l-.111.061c.685 1.27 1.241 2.197 2.263 3.251v.142c.012 1.17.051 2.34.089 3.51-1.029-.824-1.952-1.834-2.606-2.982l-.111.063c.795 1.394 1.468 2.367 2.734 3.456.068 2.155.117 4.309-.033 6.465Z" fill="#A80"/><path fill-rule="evenodd" clip-rule="evenodd" d="M13.403 64.368c-.263.711-.132 1.063.269.585 2.08-2.481 3.131.457.795 2.42-.702.59-.429 1.027.228.878 2.177-.494 1.695 1.478-.647 3.128-.545.384-.444 1.136.123 1.029 3.77-.71.406 3.674-1.415 4.139-.782.2-.344.393.22.547 2.247.616-.406 2.44-1.679 3.321l-.44.542-.394-.646c-.593-.588-1.244-1.69-2.214-2.906-.754-.947-2.024-1.981-1.523-2.777.497-.79.737-.514 1.433-.26.697.257 1.322.147.467-.67-2.319-2.219-2.11-5.45-.112-4.485.78.375.95-.127.315-.774-2.307-2.353-1.055-5.478 1.338-3.633.66.508.46.058.379-.921-.268-3.269 4.41-3.725 2.857.483Z" fill="url('#paint15_linear_6_695')" stroke="#A80" stroke-width="1.136"/><path fill-rule="evenodd" clip-rule="evenodd" d="m10.601 80.426.248.344.299-.265c.162-1.28.282-2.55.378-3.816 1.268-.74 2.083-1.578 2.888-2.618l-.095-.084c-.814.891-1.72 1.698-2.76 2.243.078-1.1.139-2.196.191-3.292 1.262-1.313 2.042-2.422 2.855-3.67l-.104-.073a22.554 22.554 0 0 1-2.723 3.158c.036-.796.07-1.592.104-2.39l.05-1.194c1.257-1.01 1.835-2.07 2.344-2.948l-.107-.068c-.428.677-1.324 1.911-2.216 2.558.081-1.746.195-3.496.5-5.38l.006-.033-.126-.02-.005.033c-.35 2.155-.654 4.255-.84 6.345-.767-.9-1.413-1.838-1.905-2.934l-.117.052c.573 1.322 1.048 2.292 1.976 3.43l-.012.141c-.089 1.167-.15 2.336-.213 3.504-.954-.907-1.786-1.991-2.34-3.19l-.115.053c.672 1.457 1.259 2.483 2.426 3.674-.117 2.153-.253 4.303-.587 6.44Z" fill="#A80"/><path fill-rule="evenodd" clip-rule="evenodd" d="M6.723 65.291c-.07.755.147 1.062.41.498 1.371-2.925 3.143-.35 1.392 2.14-.527.748-.15 1.102.446.792 1.976-1.028 2.017 1 .18 3.188-.428.51-.137 1.211.383.965 3.46-1.64 1.338 3.45-.302 4.36-.703.39-.23.468.354.474 2.33.028.236 2.463-.767 3.636l-.286.636-.547-.525c-.724-.42-1.636-1.32-2.886-2.251-.972-.725-2.465-1.405-2.187-2.301.277-.89.58-.684 1.318-.613.74.071 1.314-.193.28-.767-2.813-1.56-3.443-4.737-1.264-4.31.85.166.885-.362.106-.828-2.835-1.692-2.43-5.03.357-3.852.768.326.459-.06.129-.986-1.1-3.094 3.3-4.718 2.884-.255Z" fill="url('#paint16_linear_6_695')" stroke="#A80" stroke-width="1.136"/><path fill-rule="evenodd" clip-rule="evenodd" d="m8.148 81.53.328.27.22-.332a77.03 77.03 0 0 0-.616-3.786c1.035-1.036 1.606-2.053 2.116-3.262l-.113-.058c-.557 1.068-1.224 2.077-2.09 2.868a142.728 142.728 0 0 0-.662-3.232c.882-1.589 1.35-2.859 1.813-4.272l-.119-.044a22.417 22.417 0 0 1-1.818 3.743c-.17-.779-.341-1.557-.514-2.337l-.258-1.168c.954-1.295 1.239-2.466 1.505-3.444l-.12-.038c-.24.762-.788 2.183-1.483 3.034-.37-1.71-.71-3.43-.9-5.33l-.004-.033-.126.012.003.034c.217 2.172.463 4.28.821 6.348-.973-.675-1.838-1.42-2.595-2.355l-.1.079c.894 1.134 1.603 1.952 2.791 2.817l.025.14c.215 1.151.456 2.297.696 3.442-1.155-.635-2.238-1.474-3.081-2.493l-.098.081c1.024 1.239 1.855 2.082 3.29 2.94.44 2.111.862 4.225 1.09 6.375Z" fill="#A80"/><path fill-rule="evenodd" clip-rule="evenodd" d="M13.994 76.34c-.224.725-.074 1.069.3.57 1.943-2.589 3.154.288.927 2.374-.669.626-.372 1.048.276.864 2.147-.61 1.773 1.385-.476 3.157-.524.413-.382 1.159.179 1.022 3.728-.911.607 3.646-1.188 4.208-.77.24-.322.41.25.534 2.278.495-.273 2.459-1.496 3.406l-.41.565-.429-.624c-.625-.555-1.335-1.62-2.37-2.783-.805-.904-2.13-1.87-1.674-2.691.454-.816.709-.553 1.417-.335.711.218 1.329.075.431-.695-2.438-2.091-2.407-5.328-.357-4.472.799.333.942-.178.273-.79-2.434-2.225-1.354-5.412 1.138-3.699.686.473.462.034.328-.94-.446-3.249 4.202-3.955 2.88.33Z" fill="url('#paint17_linear_6_695')" stroke="#A80" stroke-width="1.136"/><path fill-rule="evenodd" clip-rule="evenodd" d="m12.072 92.523.266.33.284-.28c.092-1.287.143-2.562.17-3.83 1.227-.806 1.995-1.688 2.742-2.769l-.099-.08c-.765.934-1.625 1.788-2.635 2.388.018-1.102.018-2.2.01-3.297 1.19-1.378 1.909-2.527 2.652-3.817l-.107-.068a22.517 22.517 0 0 1-2.549 3.3 835.6 835.6 0 0 0-.026-2.392l-.015-1.195c1.2-1.076 1.72-2.165 2.181-3.07l-.111-.06c-.39.697-1.218 1.978-2.074 2.672-.015-1.748.004-3.501.206-5.399l.004-.033-.127-.013-.004.033c-.231 2.17-.42 4.283-.492 6.38-.816-.857-1.513-1.76-2.065-2.827l-.113.057c.645 1.29 1.172 2.233 2.161 3.319l-.003.142c-.026 1.17-.023 2.34-.022 3.51-1.003-.855-1.894-1.893-2.513-3.06l-.112.06c.751 1.418 1.394 2.41 2.626 3.538 0 2.156-.018 4.31-.235 6.46Z" fill="#A80"/><path fill-rule="evenodd" clip-rule="evenodd" d="M5.543 80.779c.136.745.429.983.53.369.524-3.186 2.93-1.182 1.92 1.686-.303.862.155 1.102.645.643 1.622-1.522 2.213.42 1.04 3.022-.274.606.197 1.203.63.826 2.885-2.51 2.226 2.963.895 4.28-.571.566-.095.513.469.362 2.25-.6.897 2.309.25 3.708l-.103.689-.668-.359c-.81-.208-1.934-.83-3.39-1.391-1.133-.437-2.755-.69-2.73-1.628.025-.932.373-.814 1.102-.944.73-.131 1.213-.54.06-.814-3.13-.746-4.6-3.636-2.387-3.811.863-.069.753-.587-.123-.826-3.189-.868-3.705-4.192-.703-3.806.827.107.425-.18-.144-.985-1.9-2.683 1.895-5.43 2.707-1.021Z" fill="url('#paint18_linear_6_695')" stroke="#A80" stroke-width="1.136"/><path fill-rule="evenodd" clip-rule="evenodd" d="m11.327 96.033.389.173.122-.38a77.278 77.278 0 0 0-1.622-3.48c.715-1.275.988-2.409 1.15-3.71l-.124-.026c-.246 1.18-.614 2.33-1.232 3.324A143.278 143.278 0 0 0 8.494 89c.417-1.767.523-3.116.585-4.602l-.127-.01a22.382 22.382 0 0 1-.733 4.093c-.375-.704-.752-1.407-1.13-2.112l-.565-1.055c.566-1.504.522-2.708.513-3.722l-.127-.004c-.023.798-.165 2.314-.602 3.32-.822-1.546-1.617-3.112-2.316-4.89l-.012-.031-.118.046.012.031c.799 2.034 1.609 3.998 2.515 5.893-1.12-.389-2.155-.873-3.138-1.57l-.074.103c1.169.852 2.073 1.449 3.452 1.962l.062.128c.519 1.051 1.063 2.09 1.605 3.128-1.284-.301-2.555-.817-3.643-1.572l-.072.104c1.322.917 2.351 1.506 3.964 1.946.998 1.915 1.979 3.837 2.782 5.847Z" fill="#A80"/><path fill-rule="evenodd" clip-rule="evenodd" d="M17.45 89.336c-.361.667-.282 1.034.183.617 2.413-2.163 3.03.894.439 2.508-.779.485-.572.957.1.902 2.223-.182 1.463 1.702-1.09 3.005-.594.304-.602 1.063-.026 1.037 3.831-.171-.125 3.695-1.993 3.898-.802.087-.396.341.139.573 2.134.927-.752 2.359-2.136 3.051l-.514.475-.296-.695c-.502-.666-.988-1.848-1.773-3.19-.61-1.043-1.717-2.247-1.108-2.965.606-.712.803-.404 1.454-.054.653.352 1.287.331.56-.598-1.976-2.524-1.307-5.693.532-4.457.716.482.957.009.423-.721-1.945-2.656-.258-5.573 1.844-3.409.579.597.446.123.507-.858.203-3.275 4.895-3.067 2.756.88Z" fill="url('#paint19_linear_6_695')" stroke="#A80" stroke-width="1.136"/><path fill-rule="evenodd" clip-rule="evenodd" d="m12.377 104.839.195.376.334-.22c.343-1.245.644-2.486.92-3.725 1.361-.553 2.287-1.269 3.232-2.184l-.081-.098c-.933.768-1.944 1.439-3.051 1.832.235-1.078.452-2.154.66-3.232 1.437-1.121 2.367-2.11 3.35-3.231l-.093-.087a22.617 22.617 0 0 1-3.145 2.742c.15-.782.298-1.566.445-2.35l.222-1.175c1.388-.824 2.11-1.791 2.74-2.59l-.096-.08c-.52.609-1.583 1.704-2.558 2.219.331-1.718.695-3.433 1.267-5.256l.01-.032-.121-.037-.01.032c-.655 2.084-1.257 4.12-1.741 6.163-.63-.999-1.134-2.02-1.463-3.174l-.123.035c.377 1.39.708 2.418 1.462 3.674l-.032.139c-.256 1.142-.484 2.29-.713 3.439-.814-1.033-1.481-2.224-1.857-3.489l-.122.037c.456 1.537.89 2.635 1.873 3.98-.425 2.114-.868 4.224-1.504 6.292Z" fill="#A80"/><path fill-rule="evenodd" clip-rule="evenodd" d="M3.595 93.587c.362.667.714.802.619.187-.49-3.193 2.42-2.032 2.35 1.01-.02.913.49.999.813.41 1.071-1.949 2.237-.284 1.927 2.554-.072.66.562 1.083.857.59 1.965-3.281 3.037 2.129 2.18 3.795-.368.714.069.516.558.198 1.954-1.268 1.57 1.918 1.389 3.449l.116.688-.747-.134c-.837.052-2.098-.192-3.657-.274-1.213-.065-2.835.197-3.103-.703-.265-.894.102-.89.755-1.239.655-.351.987-.889-.195-.793-3.21.26-5.505-2.034-3.453-2.886.8-.332.534-.791-.374-.747-3.302.163-4.826-2.84-1.85-3.402.82-.155.348-.304-.443-.893-2.64-1.963.117-5.753 2.258-1.81Z" fill="url('#paint20_linear_6_695')" stroke="#A80" stroke-width="1.136"/><path fill-rule="evenodd" clip-rule="evenodd" d="m13.835 106.307.423.044-.001-.399a77.624 77.624 0 0 0-2.625-2.808c.285-1.436.193-2.599-.056-3.887l-.127.014c.132 1.198.14 2.407-.14 3.544a145.342 145.342 0 0 0-2.354-2.322c-.151-1.81-.47-3.126-.872-4.558l-.124.029c.305 1.241.515 2.773.574 4.121a926.091 926.091 0 0 0-1.731-1.66l-.866-.828c.072-1.606-.344-2.738-.667-3.7l-.122.036c.226.767.562 2.252.458 3.345-1.262-1.216-2.505-2.459-3.721-3.934l-.022-.026-.098.08.021.026c1.392 1.688 2.772 3.305 4.223 4.827-1.186-.023-2.322-.163-3.474-.521l-.038.12c1.376.449 2.422.737 3.893.797l.1.103c.82.84 1.66 1.659 2.498 2.479-1.316.111-2.685.014-3.955-.367l-.036.121c1.543.463 2.705.705 4.376.623 1.544 1.513 3.074 3.037 4.463 4.701Z" fill="#A80"/><path fill-rule="evenodd" clip-rule="evenodd" d="M19.454 102.254c-.371.662-.298 1.03.173.62 2.445-2.128 3.018.938.402 2.515-.785.473-.585.948.087.903 2.225-.15 1.438 1.723-1.134 2.989-.598.295-.617 1.053-.041 1.036 3.832-.115-.18 3.693-2.051 3.869-.803.075-.4.335.13.575 2.12.958-.786 2.348-2.18 3.02l-.52.466-.287-.699c-.492-.673-.96-1.862-1.725-3.215-.594-1.052-1.684-2.272-1.064-2.981.616-.703.809-.392 1.455-.032.647.361 1.28.349.567-.59-1.937-2.553-1.221-5.712.598-4.449.71.492.958.022.434-.715-1.905-2.684-.175-5.576 1.894-3.382.57.605.444.129.52-.851.252-3.271 4.94-2.995 2.742.921Z" fill="url('#paint21_linear_6_695')" stroke="#A80" stroke-width="1.136"/><path fill-rule="evenodd" clip-rule="evenodd" d="m14.152 117.682.19.379.337-.215a77.46 77.46 0 0 0 .976-3.711c1.368-.533 2.305-1.235 3.263-2.137l-.08-.099c-.944.755-1.965 1.411-3.078 1.787.251-1.074.484-2.147.709-3.222 1.453-1.1 2.397-2.075 3.396-3.182l-.09-.088a22.671 22.671 0 0 1-3.186 2.696l.48-2.344.239-1.172c1.4-.803 2.136-1.76 2.778-2.548l-.095-.083c-.529.601-1.608 1.682-2.59 2.182.356-1.713.744-3.423 1.344-5.237l.01-.032-.12-.039-.011.032c-.686 2.074-1.318 4.101-1.831 6.137-.616-1.008-1.105-2.035-1.417-3.194l-.122.032c.356 1.396.671 2.428 1.406 3.695l-.034.139c-.272 1.139-.517 2.283-.764 3.428-.797-1.044-1.447-2.245-1.804-3.515l-.122.035c.433 1.543.85 2.647 1.813 4.006-.456 2.108-.93 4.212-1.597 6.27Z" fill="#A80"/><path fill-rule="evenodd" clip-rule="evenodd" d="M4.603 104.25c.418.633.78.737.633.132-.765-3.139 2.236-2.233 2.429.803.058.912.574.954.846.34.898-2.036 2.203-.478 2.14 2.377-.014.665.653 1.031.905.514 1.674-3.439 3.21 1.859 2.5 3.593-.305.744.113.508.573.149 1.837-1.431 1.73 1.776 1.682 3.317l.175.675-.756-.069c-.829.125-2.107-.009-3.668.044-1.214.04-2.807.441-3.152-.433-.341-.867.025-.895.646-1.3.622-.406.906-.971-.263-.773-3.176.536-5.661-1.551-3.69-2.577.767-.4.463-.835-.438-.712-3.276.447-5.054-2.413-2.137-3.231.804-.225.32-.332-.518-.85-2.8-1.729-.38-5.743 2.093-1.999Z" fill="url('#paint22_linear_6_695')" stroke="#A80" stroke-width="1.136"/><path fill-rule="evenodd" clip-rule="evenodd" d="m15.905 116.04.426.007-.036-.397a77.233 77.233 0 0 0-2.858-2.572c.16-1.455-.032-2.606-.392-3.868l-.125.025c.235 1.182.347 2.386.166 3.544a141.954 141.954 0 0 0-2.545-2.111c-.308-1.79-.739-3.074-1.263-4.467l-.121.04c.41 1.211.752 2.719.927 4.057-.62-.502-1.244-1.002-1.868-1.504l-.934-.751c-.067-1.606-.58-2.699-.985-3.629l-.118.046c.291.745.754 2.196.745 3.294-1.363-1.103-2.708-2.234-4.048-3.599l-.024-.024-.09.089.023.024c1.532 1.561 3.047 3.053 4.625 4.445-1.184.079-2.328.038-3.507-.22l-.027.124c1.41.328 2.477.524 3.948.458l.108.094c.89.765 1.797 1.509 2.704 2.254-1.302.224-2.674.245-3.973-.024l-.026.124c1.578.328 2.757.468 4.416.242 1.669 1.374 3.325 2.761 4.852 4.299Z" fill="#A80"/><path fill-rule="evenodd" clip-rule="evenodd" d="M21.665 112.728c-.059.756.163 1.059.418.492 1.323-2.947 3.137-.4 1.425 2.117-.514.756-.132 1.104.46.784 1.958-1.059 2.033.969.23 3.186-.418.516-.116 1.213.4.958 3.433-1.695 1.394 3.429-.231 4.365-.698.401-.223.471.36.468 2.33-.009.277 2.459-.707 3.648l-.276.64-.555-.516c-.73-.407-1.657-1.293-2.922-2.205-.984-.709-2.488-1.365-2.224-2.266.263-.894.57-.692 1.308-.633.74.059 1.311-.214.267-.772-2.837-1.515-3.518-4.681-1.333-4.289.852.153.879-.376.092-.829-2.861-1.648-2.51-4.992.295-3.858.773.313.458-.067.113-.988-1.15-3.076 3.224-4.77 2.88-.302Z" fill="url('#paint23_linear_6_695')" stroke="#A80" stroke-width="1.136"/><path fill-rule="evenodd" clip-rule="evenodd" d="m23.352 128.942.332.266.216-.336a77.353 77.353 0 0 0-.678-3.776c1.018-1.052 1.573-2.078 2.063-3.295l-.114-.057c-.54 1.078-1.19 2.097-2.042 2.901-.226-1.08-.466-2.151-.715-3.221.855-1.602 1.303-2.88 1.743-4.3l-.12-.042a22.413 22.413 0 0 1-1.756 3.771l-.552-2.328-.277-1.164c.932-1.31 1.198-2.485 1.449-3.468l-.122-.036c-.226.766-.751 2.195-1.432 3.057-.399-1.703-.767-3.418-.987-5.314l-.004-.034-.126.015.003.034c.252 2.168.533 4.272.924 6.334-.983-.66-1.86-1.391-2.633-2.314l-.098.081c.913 1.12 1.634 1.926 2.836 2.772l.028.14c.232 1.148.492 2.289.75 3.431-1.164-.617-2.26-1.438-3.12-2.444l-.097.082c1.044 1.222 1.889 2.053 3.337 2.887.474 2.104.93 4.211 1.192 6.358Z" fill="#A80"/><path fill-rule="evenodd" clip-rule="evenodd" d="M7.85 114.788c.495.576.868.634.645.052-1.154-3.018 1.937-2.498 2.512.49.173.898.69.874.882.231.634-2.133 2.126-.751 2.424 2.089.07.661.778.941.962.396 1.228-3.623 3.42 1.44 2.934 3.25-.209.777.176.49.588.076 1.642-1.652 1.94 1.544 2.087 3.08l.259.647-.759.027c-.806.228-2.091.256-3.633.505-1.2.193-2.73.792-3.182-.032-.449-.818-.089-.891.476-1.371.566-.481.776-1.078-.359-.734-3.083.932-5.812-.826-3.987-2.092.712-.494.355-.887-.523-.652-3.195.857-5.32-1.757-2.529-2.936.77-.324.277-.37-.62-.779-2.998-1.362-1.103-5.65 1.824-2.247Z" fill="url('#paint24_linear_6_695')" stroke="#A80" stroke-width="1.136"/><path fill-rule="evenodd" clip-rule="evenodd" d="m20.553 125.064.424-.047-.086-.389a77.044 77.044 0 0 0-3.16-2.192c-.026-1.464-.361-2.582-.878-3.789l-.12.04c.382 1.144.645 2.325.612 3.496a143.61 143.61 0 0 0-2.793-1.774c-.53-1.738-1.12-2.958-1.816-4.274l-.116.055c.56 1.15 1.09 2.603 1.433 3.91-.68-.42-1.361-.839-2.044-1.258l-1.022-.627c-.27-1.586-.915-2.605-1.435-3.477l-.111.06c.383.702 1.025 2.084 1.155 3.175-1.491-.923-2.97-1.876-4.471-3.062l-.027-.021-.079.1.027.021c1.717 1.356 3.409 2.646 5.15 3.828-1.165.228-2.305.332-3.507.224l-.012.126c1.44.148 2.524.209 3.976-.043l.118.08c.98.647 1.974 1.271 2.968 1.896-1.263.386-2.623.581-3.945.477l-.01.126c1.607.127 2.794.117 4.412-.316 1.83 1.154 3.648 2.321 5.357 3.655Z" fill="#A80"/><path fill-rule="evenodd" clip-rule="evenodd" d="M12.126 125.535c.622.436.998.4.638-.109-1.869-2.64 1.257-2.899 2.556-.145.39.828.885.677.912.006.085-2.223 1.874-1.253 2.868 1.426.231.624.987.72 1.03.146.29-3.814 3.673.552 3.651 2.426-.01.804.293.431.589-.071 1.181-2.007 2.264 1.017 2.788 2.468l.412.564-.73.213c-.724.421-1.962.765-3.395 1.387-1.115.483-2.45 1.44-3.092.754-.638-.682-.307-.842.12-1.446.43-.607.486-1.236-.529-.623-2.756 1.664-5.838.634-4.384-1.043.567-.654.124-.948-.668-.503-2.884 1.619-5.592-.39-3.18-2.221.665-.504.175-.427-.796-.601-3.243-.581-2.472-5.203 1.21-2.628Z" fill="url('#paint25_linear_6_695')" stroke="#A80" stroke-width="1.136"/><path fill-rule="evenodd" clip-rule="evenodd" d="m26.99 132.358.398-.15-.18-.356a76.69 76.69 0 0 0-3.607-1.344c-.388-1.413-.991-2.414-1.792-3.456l-.107.069c.655 1.014 1.203 2.094 1.462 3.237a141.834 141.834 0 0 0-3.147-1.03c-.946-1.553-1.82-2.59-2.822-3.693l-.098.081a22.434 22.434 0 0 1 2.359 3.436c-.763-.24-1.527-.477-2.293-.714l-1.146-.356c-.655-1.471-1.534-2.299-2.255-3.016l-.093.086c.546.586 1.512 1.767 1.909 2.792-1.675-.526-3.344-1.085-5.094-1.864l-.031-.014-.052.117.03.013c2.002.891 3.962 1.723 5.943 2.439-1.072.509-2.152.891-3.343 1.083l.02.125c1.432-.212 2.498-.421 3.842-1.023l.135.048c1.11.385 2.229.744 3.347 1.105-1.128.687-2.398 1.21-3.705 1.436l.022.125c1.588-.274 2.737-.576 4.197-1.395 2.06.666 4.113 1.349 6.1 2.219Z" fill="#A80"/><path fill-rule="evenodd" clip-rule="evenodd" d="M18.485 132.96c.686.329 1.05.232.611-.211-2.277-2.301.764-3.062 2.499-.557.52.753.985.524.9-.142-.28-2.206 1.645-1.539 3.065.942.331.577 1.093.549 1.042-.023-.34-3.808 3.714-.051 4 1.8.123.794.36.378.57-.166.836-2.169 2.401.637 3.157 1.983l.499.489-.685.328c-.646.532-1.811 1.072-3.123 1.918-1.02.657-2.18 1.817-2.927 1.245-.742-.57-.442-.781-.119-1.446.324-.668.276-1.298-.625-.529-2.447 2.088-5.657 1.572-4.497-.318.452-.737-.034-.954-.743-.387-2.58 2.063-5.582.522-3.503-1.675.573-.605.103-.45-.884-.464-3.296-.047-3.294-4.73.763-2.787Z" fill="url('#paint26_linear_6_695')" stroke="#A80" stroke-width="1.136"/><path fill-rule="evenodd" clip-rule="evenodd" d="m34.273 137.279.369-.212-.236-.322a76.143 76.143 0 0 0-3.78-.741c-.616-1.33-1.375-2.219-2.336-3.117l-.095.085c.813.894 1.53 1.869 1.974 2.954a143.13 143.13 0 0 0-3.274-.504c-1.19-1.379-2.223-2.26-3.392-3.185l-.083.096c.978.828 2.05 1.946 2.892 3.005-.792-.112-1.585-.222-2.38-.332l-1.19-.165c-.887-1.345-1.89-2.019-2.72-2.609l-.077.1c.635.489 1.782 1.497 2.341 2.444-1.739-.248-3.477-.528-5.332-1.012l-.033-.009-.032.123.033.009c2.121.553 4.192 1.056 6.264 1.441-.975.676-1.977 1.227-3.122 1.61l.04.12c1.38-.441 2.397-.82 3.625-1.631l.14.025c1.16.2 2.322.373 3.485.547-1.001.86-2.167 1.582-3.42 2.017l.041.12c1.523-.528 2.607-1.012 3.913-2.057 2.142.323 4.28.664 6.384 1.2Z" fill="#A80"/><path fill-rule="evenodd" clip-rule="evenodd" d="M27.874 122.439c.197.732.507.945.558.325.266-3.218 2.826-1.414 2.051 1.527-.233.883.244 1.085.695.588 1.494-1.647 2.24.242 1.28 2.93-.223.625.294 1.183.696.772 2.672-2.734 2.458 2.775 1.237 4.196-.523.609-.053.517.497.322 2.194-.779 1.08 2.229.549 3.676l-.047.695-.695-.304c-.825-.142-1.995-.672-3.492-1.114-1.164-.344-2.802-.466-2.853-1.403-.05-.931.306-.842 1.022-1.03.718-.189 1.166-.636-.005-.816-3.181-.492-4.88-3.255-2.688-3.607.855-.138.704-.646-.19-.814-3.248-.608-4.032-3.881-1.007-3.737.833.04.409-.215-.223-.97-2.111-2.523 1.45-5.567 2.615-1.236Z" fill="url('#paint27_linear_6_695')" stroke="#A80" stroke-width="1.136"/><path fill-rule="evenodd" clip-rule="evenodd" d="m34.873 137.18.402.141.09-.388a77.44 77.44 0 0 0-1.898-3.338c.61-1.33.791-2.482.847-3.792l-.126-.016c-.15 1.195-.424 2.372-.96 3.413a141.848 141.848 0 0 0-1.748-2.803c.274-1.795.27-3.149.212-4.634l-.128-.001a22.382 22.382 0 0 1-.4 4.14c-.43-.672-.863-1.343-1.297-2.015l-.649-1.006c.443-1.545.302-2.742.211-3.752l-.127.006c.042.798.023 2.32-.332 3.359-.944-1.476-1.863-2.972-2.703-4.689l-.014-.03-.115.055.015.031c.96 1.963 1.927 3.855 2.984 5.672-1.148-.298-2.22-.697-3.256-1.313l-.065.108c1.233.755 2.183 1.278 3.6 1.679l.072.123c.602 1.006 1.228 1.997 1.852 2.989-1.304-.198-2.612-.61-3.759-1.274l-.063.109c1.392.808 2.466 1.312 4.11 1.621 1.149 1.829 2.282 3.666 3.245 5.605Z" fill="#A80"/><path fill-rule="evenodd" clip-rule="evenodd" d="M42.823 129.486a16.37 16.37 0 0 1 2.49 1.782l-.078 13.978c.052-.576-.168-1.294-.736-2.127-.994-1.461-2.256-2.301-3.571-2.719l1.895-10.914Z" fill="#D4AA00" stroke="#A80" stroke-width="1.136"/><path fill-rule="evenodd" clip-rule="evenodd" d="M42.823 129.486c-4.571-2.651-9.6-2.437-14.736-1.478 2.356 2.229 4.613 4.855 6.75 7.963-2.385 2.545-4.658 5.926-5.785 8.855 1.886-.855 3.722-1.316 5.396-1.208 2.84.182 4.561 2.532 7.306 3.083 2.815.565 4.562-.914 2.745-3.582-.994-1.461-2.256-2.301-3.571-2.719l1.895-10.914Z" fill="#FF0"/><path fill-rule="evenodd" clip-rule="evenodd" d="M42.823 129.486c-4.571-2.651-9.6-2.437-14.736-1.478 2.356 2.229 4.613 4.855 6.75 7.963-2.385 2.545-4.658 5.926-5.785 8.855 1.886-.855 3.722-1.316 5.396-1.208 2.84.182 4.561 2.532 7.306 3.083 2.815.565 4.562-.914 2.745-3.582-.994-1.461-2.256-2.301-3.571-2.719l1.895-10.914Z" fill="#FFD500"/><path fill-rule="evenodd" clip-rule="evenodd" d="M42.823 129.486c-4.571-2.651-9.6-2.437-14.736-1.478 2.356 2.229 4.613 4.855 6.75 7.963 2.069-1.073 5.159-.166 6.537 1.856l1.449-8.341Z" fill="#005BBB"/><path fill-rule="evenodd" clip-rule="evenodd" d="M90.177 129.486a16.37 16.37 0 0 0-2.49 1.782l.078 13.978c-.052-.576.168-1.294.735-2.127.994-1.461 2.256-2.301 3.572-2.719l-1.895-10.914Z" fill="#D4AA00" stroke="#A80" stroke-width="1.136"/><path fill-rule="evenodd" clip-rule="evenodd" d="M90.177 129.486c4.571-2.651 9.6-2.437 14.736-1.478-2.356 2.229-4.614 4.855-6.75 7.963 2.384 2.545 4.657 5.926 5.784 8.855-1.885-.855-3.722-1.316-5.395-1.208-2.84.182-4.562 2.532-7.307 3.083-2.815.565-4.562-.914-2.745-3.582.995-1.461 2.256-2.301 3.572-2.719l-1.895-10.914Z" fill="#FF0"/><path fill-rule="evenodd" clip-rule="evenodd" d="M90.177 129.486c4.571-2.651 9.6-2.437 14.736-1.478-2.356 2.229-4.614 4.855-6.75 7.963 2.384 2.545 4.657 5.926 5.784 8.855-1.885-.855-3.722-1.316-5.395-1.208-2.84.182-4.562 2.532-7.307 3.083-2.815.565-4.562-.914-2.745-3.582.995-1.461 2.256-2.301 3.572-2.719l-1.895-10.914Z" fill="#FFD500"/><path fill-rule="evenodd" clip-rule="evenodd" d="M90.177 129.486c4.57-2.651 9.6-2.437 14.736-1.478-2.357 2.229-4.614 4.855-6.75 7.963-2.07-1.073-5.16-.166-6.538 1.856l-1.448-8.341Z" fill="#005BBB"/><path d="M42.823 129.486c-4.571-2.651-9.6-2.437-14.736-1.478 2.356 2.229 4.613 4.855 6.75 7.963-2.385 2.545-4.658 5.926-5.785 8.855 1.886-.855 3.722-1.316 5.396-1.208 2.84.182 4.561 2.532 7.306 3.083 2.815.565 4.562-.914 2.745-3.582-.994-1.461-2.256-2.301-3.571-2.719l1.895-10.914Z" stroke="#000" stroke-width="1.023"/><path d="M42.823 129.486c-4.571-2.651-9.6-2.437-14.736-1.478 2.356 2.229 4.613 4.855 6.75 7.963-2.385 2.545-4.658 5.926-5.785 8.855 1.886-.855 3.722-1.316 5.396-1.208 2.84.182 4.561 2.532 7.306 3.083 2.815.565 4.562-.914 2.745-3.582-.994-1.461-2.256-2.301-3.571-2.719l1.895-10.914Z" stroke="#A80" stroke-width="1.136"/><path d="M90.177 129.486c4.571-2.651 9.6-2.437 14.736-1.478-2.356 2.229-4.614 4.855-6.75 7.963 2.384 2.545 4.657 5.926 5.784 8.855-1.885-.855-3.722-1.316-5.395-1.208-2.84.182-4.562 2.532-7.307 3.083-2.815.565-4.562-.914-2.745-3.582.995-1.461 2.256-2.301 3.572-2.719l-1.895-10.914Z" stroke="#000" stroke-width="1.023"/><path d="M90.177 129.486c4.571-2.651 9.6-2.437 14.736-1.478-2.356 2.229-4.614 4.855-6.75 7.963 2.384 2.545 4.657 5.926 5.784 8.855-1.885-.855-3.722-1.316-5.395-1.208-2.84.182-4.562 2.532-7.307 3.083-2.815.565-4.562-.914-2.745-3.582.995-1.461 2.256-2.301 3.572-2.719l-1.895-10.914Z" stroke="#A80" stroke-width="1.136"/><path fill-rule="evenodd" clip-rule="evenodd" d="M66.5 143.378c3.733-.015 7.493-.87 11.273-2.564 6.356-2.848 11.815-4.055 14.245-.512l-.247-16.475c-2.43-3.544-7.642-2.335-13.998.512-3.78 1.693-7.541 2.564-11.273 2.564-3.733 0-7.494-.871-11.274-2.564-6.356-2.847-11.568-4.056-13.998-.512l-.247 16.475c2.43-3.543 7.889-2.336 14.245.512 3.78 1.694 7.54 2.549 11.274 2.564Z" fill="#FF0"/><path fill-rule="evenodd" clip-rule="evenodd" d="M66.5 143.378c3.733-.015 7.493-.87 11.273-2.564 6.356-2.848 11.815-4.055 14.245-.512l-.247-16.475c-2.43-3.544-7.642-2.335-13.998.512-3.78 1.693-7.541 2.564-11.273 2.564-3.733 0-7.494-.871-11.274-2.564-6.356-2.847-11.568-4.056-13.998-.512l-.247 16.475c2.43-3.543 7.889-2.336 14.245.512 3.78 1.694 7.54 2.549 11.274 2.564Z" fill="#FFD500"/><path fill-rule="evenodd" clip-rule="evenodd" d="m91.892 131.889-.121-8.062c-2.43-3.544-7.642-2.335-13.998.512-3.78 1.693-7.54 2.564-11.273 2.564-3.733 0-7.494-.871-11.274-2.564-6.356-2.847-11.568-4.056-13.998-.512l-.12 8.062c2.488-3.326 7.87-2.112 14.118.687 3.781 1.694 7.54 2.565 11.274 2.565 3.733 0 7.493-.871 11.273-2.565 6.249-2.799 11.63-4.013 14.12-.687Z" fill="#005BBB"/><path fill-rule="evenodd" clip-rule="evenodd" d="m53.687 137.817 1.294-2.959c.128-.295.135-.556.018-.784-.115-.23-.34-.4-.675-.513a1.397 1.397 0 0 0-.605-.077.958.958 0 0 0-.495.204 1.184 1.184 0 0 0-.343.462l-1.293 2.959a.972.972 0 0 0-.09.526.71.71 0 0 0 .22.424c.125.121.295.218.513.291.332.113.626.122.884.032.257-.093.448-.28.572-.565Zm-1.256-1.313.635-1.454c.055-.126.12-.207.195-.242.076-.035.171-.031.291.009l.43.144c.116.04.187.093.215.163.029.068.016.168-.039.294l-.636 1.454c-.055.126-.121.21-.198.25-.077.039-.173.041-.288.002l-.428-.145c-.12-.04-.192-.097-.22-.17-.029-.072-.014-.174.043-.305Zm5.034-1.466 2.351.793-.833 1.905-.504-.17.165-.376c.041-.095.05-.168.028-.221-.024-.053-.087-.097-.191-.131l-.689-.233-.39.893.704.237c.549.185.71.54.481 1.061l-.382.877a.963.963 0 0 1-.806.599 1.342 1.342 0 0 1-.571-.072l-1.412-.476.549-1.255.379.128.944-2.162-.378-.127.555-1.27Zm-.247 2.881-.37.848.662.223c.13.044.234.051.31.02.077-.029.14-.101.19-.216l.106-.242a.256.256 0 0 0-.008-.244.4.4 0 0 0-.227-.166l-.663-.223Zm5.702.016-.66-.123-.749 2.074c-.155.402-.28.695-.375.876-.097.182-.21.308-.336.377-.128.07-.293.086-.496.049l-.353-.066.319-1.315.272.051c.128.023.225.023.288-.002.063-.026.126-.102.188-.227a6.49 6.49 0 0 0 .26-.684l.437-1.235-.351-.066.322-1.33 2.48.464-.32 1.33-.396-.075-.549 2.265.396.074-.318 1.315-1.32-.246.318-1.315.395.073.404-1.668.144-.596Zm4.376 1.834.256.723-.512.008.027 1.344 1.44-.022-.027-1.344-.397.006-.73-2.304.288-.005-.027-1.359-1.691.026.027 1.359.29-.004-.567 2.324-.396.006.027 1.344 1.439-.022-.027-1.344-.503.008.201-.73.882-.014Zm-.473-1.581.347 1.133-.658.01.31-1.143Zm3.717 2.26c.078.299.23.534.457.707.226.173.503.225.832.158.338-.068.56-.221.665-.456.105-.235.116-.506.035-.812l-.255-.971-.527.107.056.214c.044.169.043.295-.004.378-.049.084-.158.142-.328.176-.176.036-.31.026-.402-.033-.09-.058-.158-.168-.201-.331l-.358-1.363a.409.409 0 0 1 .04-.339c.06-.094.17-.157.328-.19.29-.058.475.055.55.343l.057.217.525-.107-.518-1.972-.526.106.082.308a1.327 1.327 0 0 0-.407-.214.777.777 0 0 0-.372-.009c-.26.053-.432.166-.516.341-.085.175-.097.38-.036.614l.823 3.128Zm4.428-3.937.988 2.146.376-.133.573 1.246-1.252.445-.574-1.246.377-.135-.988-2.146-.158.056c-.103.037-.166.082-.189.135-.023.053-.012.127.03.221l.175.379-.5.178-.873-1.898 2.37-.841.871 1.893-.5.177-.173-.375c-.043-.093-.093-.152-.152-.177-.058-.024-.139-.018-.242.018l-.159.057Zm4.21-.735.512-.201c.325-.127.57-.165.732-.114.162.051.306.203.434.454l.563 1.111c.108.213.12.414.032.603-.086.19-.258.334-.512.434l-1.364.533-.623-1.228.37-.145-1.072-2.115-.37.145-.63-1.242 1.234-.482.63 1.242-.371.145.435.86Zm.636 1.255.502-.196c.232-.091.304-.22.22-.387l-.173-.341c-.051-.1-.11-.159-.174-.173-.063-.015-.163.003-.3.057l-.502.196.427.844Z" fill="#000"/><path d="M66.5 143.378c3.733-.015 7.493-.87 11.273-2.564 6.356-2.848 11.815-4.055 14.245-.512l-.247-16.475c-2.43-3.544-7.642-2.335-13.998.512-3.78 1.693-7.541 2.564-11.273 2.564-3.733 0-7.494-.871-11.274-2.564-6.356-2.847-11.568-4.056-13.998-.512l-.247 16.475c2.43-3.543 7.889-2.336 14.245.512 3.78 1.694 7.54 2.549 11.274 2.564Z" stroke="#000" stroke-width="1.023" stroke-linejoin="bevel"/><path d="M66.5 143.378c3.733-.015 7.493-.87 11.273-2.564 6.356-2.848 11.815-4.055 14.245-.512l-.247-16.475c-2.43-3.544-7.642-2.335-13.998.512-3.78 1.693-7.541 2.564-11.273 2.564-3.733 0-7.494-.871-11.274-2.564-6.356-2.847-11.568-4.056-13.998-.512l-.247 16.475c2.43-3.543 7.889-2.336 14.245.512 3.78 1.694 7.54 2.549 11.274 2.564Z" stroke="#A80" stroke-width="1.136" stroke-linejoin="bevel"/><path fill-rule="evenodd" clip-rule="evenodd" d="m46.178 124.764-.515.657-.47-.672.338.005.027-1.36-1.337-.02-.028 1.36.392.005.752 1.103-.871 1.211-.32-.004-.026 1.344 1.338.02.026-1.344-.392-.006.564-.764.53.781-.383-.006-.027 1.344 1.335.02.026-1.344-.327-.005-.817-1.237.793-1.079.398.006.027-1.359-1.334-.021-.027 1.36.328.005Zm4.893.931-.37.884.751.238-.177.423-.752-.237-.363.867.597.19c.2.063.336.008.407-.164l.147-.351.521.165-.783 1.872-2.316-.732.53-1.264.384.122.911-2.175-.385-.122.535-1.278 2.315.733-.803 1.917-.514-.162.16-.379c.039-.095.047-.169.023-.222-.026-.052-.09-.095-.196-.128l-.622-.197Zm3.894 2.925-.524.894.364.161-.702 1.199-1.215-.539.702-1.198.365.162 1.209-2.063-.357-.158.71-1.212 1.337.593c.25.11.413.262.488.455.077.192.053.393-.068.601l-.61 1.042a1.15 1.15 0 0 1-.296.356.53.53 0 0 1-.362.091 1.746 1.746 0 0 1-.54-.161l-.501-.223Zm.235-.401.494.219c.134.059.234.082.3.07.064-.012.126-.068.182-.165l.17-.289c.091-.156.023-.284-.202-.384l-.494-.218-.45.767Zm2.965 3.061c-.103.293-.104.563-.005.812.098.249.31.417.636.503.336.089.618.055.845-.103.226-.157.392-.387.498-.688l.335-.953-.523-.139-.074.211c-.058.165-.132.273-.221.325-.09.051-.22.053-.388.008-.175-.046-.286-.114-.333-.205-.046-.09-.042-.215.015-.375l.47-1.338a.47.47 0 0 1 .23-.275c.107-.055.24-.062.396-.02.288.076.384.255.285.538l-.075.213.52.138.68-1.936-.52-.139-.106.303a1.096 1.096 0 0 0-.232-.364.738.738 0 0 0-.32-.172c-.258-.068-.474-.045-.648.069a.986.986 0 0 0-.385.517l-1.08 3.07Zm6.619 1.343.318-3.158c.031-.315-.045-.567-.23-.758-.185-.193-.458-.302-.819-.33a1.429 1.429 0 0 0-.612.073.875.875 0 0 0-.416.316 1.072 1.072 0 0 0-.186.527l-.318 3.157a.967.967 0 0 0 .079.527.79.79 0 0 0 .348.355c.16.087.356.138.59.156.359.027.648-.035.87-.184.22-.151.346-.378.376-.681Zm-1.637-.958.157-1.552c.013-.135.051-.229.112-.28.062-.052.157-.072.286-.062l.462.036c.126.009.212.043.261.103.05.06.07.158.056.292l-.157 1.552c-.013.135-.052.231-.113.288-.063.056-.155.081-.28.071l-.461-.034c-.128-.01-.217-.047-.268-.11-.05-.063-.069-.165-.055-.304Zm4.916-.855.951-.072-.094-.938-.317.024-.136-1.354 1.267-.097.136 1.355-.407.031.232 2.306.407-.03.135 1.339-1.267.096-.135-1.34.317-.024-.093-.92-.951.073.093.92.316-.024.135 1.339-1.268.097-.135-1.339.408-.032-.232-2.306-.4.03-.135-1.354 1.259-.096.136 1.354-.316.024.094.938Zm4.54.953c.103.293.275.519.517.677.242.158.525.193.852.107.335-.09.547-.255.633-.496.086-.241.076-.512-.03-.813l-.335-.952-.522.139.073.21c.059.165.068.291.026.377-.042.086-.148.151-.316.196-.175.047-.31.044-.408-.009-.096-.051-.173-.158-.23-.318l-.47-1.337c-.044-.129-.04-.242.014-.341.053-.098.159-.168.315-.209.289-.077.484.026.582.308l.075.212.52-.138-.68-1.936-.52.139.106.302a1.368 1.368 0 0 0-.427-.189.812.812 0 0 0-.376.014c-.258.068-.422.192-.493.372-.072.18-.067.386.014.615l1.08 3.07Zm4.215-3.186.508-.216c.324-.137.568-.183.734-.137.166.046.318.194.457.441l.613 1.093c.118.21.137.411.056.602-.078.192-.246.342-.5.449l-1.355.574-.678-1.208.367-.156-1.167-2.08-.367.155-.686-1.222 1.226-.52.685 1.222-.368.157.475.846Zm.693 1.235.498-.212c.23-.097.298-.228.205-.393l-.188-.335c-.055-.099-.116-.155-.181-.168-.065-.013-.165.009-.302.066l-.498.212.466.83Zm3.171-3.896.383-.127-.56-1.269-1.27.424.56 1.269.381-.127.955 2.162-.381.128.554 1.255 1.27-.424-.554-1.256-.383.128-.407-.922.444-.148c.169-.056.291.002.367.173l.614 1.389c.155.353.415.47.778.349l.705-.236-.554-1.255-.46.153c-.115.04-.197.051-.244.035-.049-.015-.094-.071-.138-.169l-.185-.419c-.127-.289-.317-.404-.57-.343.213-.153.273-.331.182-.536l-.176-.4c-.043-.098-.054-.167-.031-.205.022-.038.093-.078.212-.117l.458-.153-.563-1.277-.705.236c-.362.121-.465.36-.31.714l.574 1.298c.076.172.029.286-.14.342l-.444.148-.362-.82Zm6.748.331.243.727h-.517v1.344h1.455v-1.344h-.401l-.691-2.315h.29v-1.36h-1.708v1.36h.292l-.618 2.315h-.4v1.344h1.454v-1.344h-.509l.218-.727h.892Zm-.447-1.588.328 1.139h-.665l.337-1.139Z" fill="#fff"/></g><defs><linearGradient id="paint0_linear_6_695" x1="123.629" y1="55.591" x2="119.485" y2="65.224" gradientUnits="userSpaceOnUse"><stop stop-color="#FFD500"/><stop offset="1" stop-color="#A80"/></linearGradient><linearGradient id="paint1_linear_6_695" x1="121.385" y1="67.921" x2="118.068" y2="77.863" gradientUnits="userSpaceOnUse"><stop stop-color="#FFD500"/><stop offset="1" stop-color="#A80"/></linearGradient><linearGradient id="paint2_linear_6_695" x1="127.09" y1="69.18" x2="121.344" y2="77.968" gradientUnits="userSpaceOnUse"><stop stop-color="#FFD500"/><stop offset="1" stop-color="#A80"/></linearGradient><linearGradient id="paint3_linear_6_695" x1="120.599" y1="79.983" x2="116.753" y2="89.736" gradientUnits="userSpaceOnUse"><stop stop-color="#FFD500"/><stop offset="1" stop-color="#A80"/></linearGradient><linearGradient id="paint4_linear_6_695" x1="127.184" y1="84.742" x2="119.263" y2="91.659" gradientUnits="userSpaceOnUse"><stop stop-color="#FFD500"/><stop offset="1" stop-color="#A80"/></linearGradient><linearGradient id="paint5_linear_6_695" x1="117.828" y1="92.601" x2="115.946" y2="102.908" gradientUnits="userSpaceOnUse"><stop stop-color="#FFD500"/><stop offset="1" stop-color="#A80"/></linearGradient><linearGradient id="paint6_linear_6_695" x1="127.914" y1="97.272" x2="118.232" y2="101.396" gradientUnits="userSpaceOnUse"><stop stop-color="#FFD500"/><stop offset="1" stop-color="#A80"/></linearGradient><linearGradient id="paint7_linear_6_695" x1="115.872" y1="105.486" x2="114.14" y2="115.819" gradientUnits="userSpaceOnUse"><stop stop-color="#FFD500"/><stop offset="1" stop-color="#A80"/></linearGradient><linearGradient id="paint8_linear_6_695" x1="126.593" y1="107.793" x2="116.589" y2="111.065" gradientUnits="userSpaceOnUse"><stop stop-color="#FFD500"/><stop offset="1" stop-color="#A80"/></linearGradient><linearGradient id="paint9_linear_6_695" x1="112.085" y1="116.629" x2="106.198" y2="125.325" gradientUnits="userSpaceOnUse"><stop stop-color="#FFD500"/><stop offset="1" stop-color="#A80"/></linearGradient><linearGradient id="paint10_linear_6_695" x1="122.912" y1="118.077" x2="112.573" y2="120.061" gradientUnits="userSpaceOnUse"><stop stop-color="#FFD500"/><stop offset="1" stop-color="#A80"/></linearGradient><linearGradient id="paint11_linear_6_695" x1="117.889" y1="128.169" x2="107.376" y2="127.525" gradientUnits="userSpaceOnUse"><stop stop-color="#FFD500"/><stop offset="1" stop-color="#A80"/></linearGradient><linearGradient id="paint12_linear_6_695" x1="111.137" y1="135.074" x2="100.874" y2="132.711" gradientUnits="userSpaceOnUse"><stop stop-color="#FFD500"/><stop offset="1" stop-color="#A80"/></linearGradient><linearGradient id="paint13_linear_6_695" x1="104.533" y1="126.368" x2="96.078" y2="132.625" gradientUnits="userSpaceOnUse"><stop stop-color="#FFD500"/><stop offset="1" stop-color="#A80"/></linearGradient><linearGradient id="paint14_linear_6_695" x1="9.371" y1="55.591" x2="13.515" y2="65.224" gradientUnits="userSpaceOnUse"><stop stop-color="#FFD500"/><stop offset="1" stop-color="#A80"/></linearGradient><linearGradient id="paint15_linear_6_695" x1="11.615" y1="67.921" x2="14.932" y2="77.863" gradientUnits="userSpaceOnUse"><stop stop-color="#FFD500"/><stop offset="1" stop-color="#A80"/></linearGradient><linearGradient id="paint16_linear_6_695" x1="5.91" y1="69.18" x2="11.656" y2="77.968" gradientUnits="userSpaceOnUse"><stop stop-color="#FFD500"/><stop offset="1" stop-color="#A80"/></linearGradient><linearGradient id="paint17_linear_6_695" x1="12.401" y1="79.983" x2="16.247" y2="89.736" gradientUnits="userSpaceOnUse"><stop stop-color="#FFD500"/><stop offset="1" stop-color="#A80"/></linearGradient><linearGradient id="paint18_linear_6_695" x1="5.816" y1="84.742" x2="13.737" y2="91.659" gradientUnits="userSpaceOnUse"><stop stop-color="#FFD500"/><stop offset="1" stop-color="#A80"/></linearGradient><linearGradient id="paint19_linear_6_695" x1="15.172" y1="92.601" x2="17.054" y2="102.908" gradientUnits="userSpaceOnUse"><stop stop-color="#FFD500"/><stop offset="1" stop-color="#A80"/></linearGradient><linearGradient id="paint20_linear_6_695" x1="5.086" y1="97.272" x2="14.768" y2="101.396" gradientUnits="userSpaceOnUse"><stop stop-color="#FFD500"/><stop offset="1" stop-color="#A80"/></linearGradient><linearGradient id="paint21_linear_6_695" x1="17.128" y1="105.486" x2="18.86" y2="115.819" gradientUnits="userSpaceOnUse"><stop stop-color="#FFD500"/><stop offset="1" stop-color="#A80"/></linearGradient><linearGradient id="paint22_linear_6_695" x1="6.407" y1="107.793" x2="16.411" y2="111.065" gradientUnits="userSpaceOnUse"><stop stop-color="#FFD500"/><stop offset="1" stop-color="#A80"/></linearGradient><linearGradient id="paint23_linear_6_695" x1="20.914" y1="116.629" x2="26.802" y2="125.325" gradientUnits="userSpaceOnUse"><stop stop-color="#FFD500"/><stop offset="1" stop-color="#A80"/></linearGradient><linearGradient id="paint24_linear_6_695" x1="10.088" y1="118.077" x2="20.427" y2="120.061" gradientUnits="userSpaceOnUse"><stop stop-color="#FFD500"/><stop offset="1" stop-color="#A80"/></linearGradient><linearGradient id="paint25_linear_6_695" x1="15.111" y1="128.169" x2="25.623" y2="127.525" gradientUnits="userSpaceOnUse"><stop stop-color="#FFD500"/><stop offset="1" stop-color="#A80"/></linearGradient><linearGradient id="paint26_linear_6_695" x1="21.863" y1="135.074" x2="32.126" y2="132.711" gradientUnits="userSpaceOnUse"><stop stop-color="#FFD500"/><stop offset="1" stop-color="#A80"/></linearGradient><linearGradient id="paint27_linear_6_695" x1="28.467" y1="126.368" x2="36.922" y2="132.625" gradientUnits="userSpaceOnUse"><stop stop-color="#FFD500"/><stop offset="1" stop-color="#A80"/></linearGradient><clipPath id="clip0_6_695"><path fill="#fff" d="M0 0h133v147H0z"/></clipPath></defs></svg>