<svg width="54" height="60" viewBox="0 0 54 60" fill="none" xmlns="http://www.w3.org/2000/svg">
<path d="M13.6052 59.7904C14.1176 60.0108 14.6968 60.0591 15.2434 59.9271C15.5348 59.8578 15.8085 59.7358 16.0489 59.5682C16.2894 59.4007 16.4918 59.1908 16.6445 58.9505L22.5177 49.5657L28.1064 55.3763C28.7906 56.1287 29.6496 56.7279 30.6189 57.1292C31.2201 57.3721 31.8858 57.4434 32.531 57.3343C32.8739 57.2662 33.198 57.133 33.4826 56.9431C33.7673 56.7532 34.0064 56.5106 34.1849 56.2308C34.5591 55.6358 34.7723 54.9656 34.8065 54.2776L37.9195 16.6798C37.9221 16.6505 37.9221 16.6211 37.9195 16.5919C37.9249 16.3412 37.8656 16.093 37.7465 15.8679C37.6274 15.6428 37.4519 15.4474 37.2347 15.2979C37.1356 15.2283 37.0229 15.1769 36.9029 15.1466C36.6763 15.0743 36.4353 15.0493 36.1971 15.0733C35.9698 15.0972 35.7497 15.1618 35.5492 15.2638C35.4794 15.2936 35.414 15.3313 35.3543 15.3761L1.85894 36.6213C1.22929 36.9893 0.703732 37.4915 0.326122 38.0861C0.153584 38.3694 0.0466652 38.6828 0.0122032 39.0065C-0.0222626 39.3302 0.0164833 39.657 0.125961 39.966C0.347672 40.5377 0.74728 41.0356 1.27425 41.3967C2.12917 41.9755 3.11411 42.3678 4.15552 42.5442H4.19239L12.3937 44.1311L6.54692 53.5452C6.39857 53.7866 6.30313 54.0528 6.26607 54.3285C6.22901 54.6042 6.25106 54.8839 6.33095 55.1517C6.4886 55.6872 6.85204 56.1509 7.35283 56.4554L7.4213 56.4896L13.4788 59.7318C13.5175 59.7571 13.5602 59.7768 13.6052 59.7904ZM14.7008 58.0228C14.644 58.0373 14.5839 58.0373 14.527 58.0228C14.5083 58.0092 14.4868 57.9993 14.4638 57.9935L8.48532 54.7952C8.43336 54.7567 8.39637 54.7036 8.37997 54.6439C8.36375 54.6046 8.36375 54.5611 8.37997 54.5218L15.2276 43.6721C15.2825 43.5807 15.3216 43.4818 15.3435 43.3791C15.3725 43.2514 15.3736 43.1195 15.3467 42.9914C15.3198 42.8633 15.2654 42.7414 15.1869 42.6331C15.1083 42.5247 15.0071 42.4321 14.8892 42.3606C14.7714 42.2892 14.6392 42.2403 14.5007 42.217L4.88242 40.635H4.84555C4.12511 40.5179 3.44156 40.2544 2.84394 39.8635C2.65178 39.7419 2.50031 39.5727 2.40675 39.3752C2.389 39.3153 2.38499 39.2527 2.39497 39.1913C2.40495 39.1299 2.4287 39.0711 2.46469 39.0188C2.68028 38.7051 2.97035 38.4412 3.31274 38.2473L35.4438 17.7784L32.4098 53.7112C32.4019 54.0846 32.299 54.451 32.1096 54.7806C32.079 54.8347 32.0365 54.8823 31.9847 54.9201C31.933 54.958 31.8732 54.9853 31.8093 55.0003C31.5769 55.0301 31.3401 54.9944 31.1298 54.8978C30.4651 54.6166 29.878 54.1992 29.4127 53.6771L23.4236 46.9876C23.347 46.9091 23.2583 46.8417 23.1603 46.7874C23.0398 46.722 22.9066 46.6795 22.7682 46.6623C22.6299 46.6451 22.4893 46.6536 22.3545 46.6872C22.2197 46.7208 22.0935 46.7789 21.9832 46.8582C21.8728 46.9374 21.7806 47.0361 21.7117 47.1487L14.8167 57.9691C14.7888 58.0005 14.7495 58.0214 14.7061 58.0277L14.7008 58.0228ZM14.4691 57.9935C14.325 57.9269 14.1665 57.8919 14.0055 57.8909L14.4691 57.9935ZM38.4568 7.50492C37.4785 7.50393 36.5096 7.68199 35.6057 8.02889C34.7018 8.37578 33.8806 8.88469 33.1894 9.52642C33.0472 9.65826 32.9155 9.79009 32.7891 9.92681L33.005 9.86334C33.4095 9.74526 33.8234 9.65709 34.2429 9.59966C34.3798 9.57525 34.522 9.55572 34.659 9.54107C35.2961 9.47516 35.9392 9.47516 36.5763 9.54107L36.845 9.57525C37.7958 9.30412 38.8083 9.27766 39.7741 9.4987C40.74 9.71973 41.6228 10.1799 42.3283 10.8301C42.8334 11.3016 43.233 11.8609 43.5042 12.476C43.7753 13.091 43.9128 13.7497 43.9085 14.4141C43.8637 14.9041 43.8956 15.3975 44.0033 15.879C44.0869 16.2914 44.1345 16.7095 44.1456 17.129C44.1719 17.441 44.1719 17.7545 44.1456 18.0665L44.0718 18.9356C45.3089 17.6153 45.9603 15.9095 45.8948 14.1618C45.8293 12.414 45.0518 10.7542 43.7189 9.51665C43.0278 8.87471 42.2067 8.36566 41.3028 8.01875C40.3988 7.67184 39.4299 7.4939 38.4515 7.49516L38.4568 7.50492ZM38.4568 0C34.3324 -2.19222e-07 30.3768 1.51847 27.4599 4.22151C24.543 6.92454 22.9036 10.5908 22.9022 14.4141C22.9022 14.9024 22.9022 15.3516 22.9759 15.8106L25.262 14.3458C25.2835 12.1423 25.948 9.98537 27.185 8.10372C28.4221 6.22206 30.1855 4.6859 32.2882 3.65818C34.3909 2.63046 36.7545 2.14952 39.1283 2.26638C41.502 2.38324 43.7973 3.09354 45.7708 4.32192C47.7443 5.55031 49.3222 7.25097 50.3373 9.24349C51.3524 11.236 51.7668 13.4461 51.5364 15.6393C51.306 17.8324 50.4396 19.9269 49.0289 21.7005C47.6183 23.4741 45.716 24.8606 43.524 25.713L43.3238 28.1105C46.8335 27.0359 49.8156 24.8379 51.7359 21.9103C53.6562 18.9828 54.3891 15.517 53.8034 12.134C53.2177 8.75103 51.3515 5.67195 48.5394 3.44849C45.7273 1.22503 42.1529 0.00251632 38.4568 0Z" fill="#127CFF"/>
</svg>
